M48
; DRILL file {KiCad 5.1.6} date Sat Aug 29 17:23:00 2020
; FORMAT={-:-/ absolute / metric / decimal}
; #@! TF.CreationDate,2020-08-29T17:23:00+02:00
; #@! TF.GenerationSoftware,Kicad,Pcbnew,5.1.6
FMAT,2
METRIC
T1C0.300
T2C0.400
T3C0.600
T4C0.650
T5C3.200
%
G90
G05
T1
X127.68Y-124.07
X127.68Y-125.37
X128.98Y-124.07
X128.98Y-125.37
X130.28Y-124.07
X130.28Y-125.37
X131.58Y-124.07
X131.58Y-125.37
T2
X123.8Y-110.0
X125.8Y-108.0
X125.8Y-112.0
X126.33Y-114.92
X133.0Y-127.25
X133.0Y-129.75
X133.0Y-134.5
X133.25Y-132.0
X138.93Y-118.22
X138.93Y-123.62
X139.2Y-132.0
X139.4Y-129.8
X139.6Y-127.2
X139.7Y-133.5
X142.2Y-135.2
X144.75Y-131.25
X146.5Y-128.25
X147.345Y-127.095
X147.5Y-125.0
X149.25Y-109.5
X149.4Y-112.3
X149.5Y-107.0
X151.25Y-124.5
X152.0Y-136.0
X152.4Y-131.3
X152.5Y-106.0
X153.4Y-81.6
X154.0Y-124.25
X155.2Y-80.2
X155.25Y-106.0
X156.5Y-124.0
X156.8Y-81.6
X158.0Y-106.0
X159.25Y-124.0
X159.5Y-108.0
X159.75Y-110.75
X159.934Y-113.985
X161.75Y-124.5
X164.0Y-125.5
X167.2Y-117.9
X168.6Y-135.8
X170.2Y-134.6
X170.3Y-118.9
X173.6Y-133.0
X173.6Y-136.0
X174.6Y-125.4
X175.2Y-133.0
X175.4Y-129.0
X176.2Y-133.2
X179.8Y-135.8
X180.6Y-132.2
X181.0Y-119.2
X181.5Y-117.0
X183.0Y-113.6
X183.6Y-126.4
X184.2Y-108.6
X184.2Y-111.8
X185.6Y-110.2
X187.2Y-130.0
X188.7Y-114.3
X188.8Y-110.6
X188.8Y-116.1
X188.8Y-119.5
T5
X125.0Y-140.0
X125.0Y-80.0
X184.9Y-80.1
X185.0Y-140.0
T3
G00X121.1Y-126.375
M15
G01X121.8Y-126.375
M16
G05
G00X121.1Y-134.725
M15
G01X121.8Y-134.725
M16
G05
T4
G00X124.35Y-128.325
M15
G01X124.55Y-128.325
M16
G05
G00X124.35Y-132.775
M15
G01X124.55Y-132.775
M16
G05
T0
M30
