G04 #@! TF.GenerationSoftware,KiCad,Pcbnew,5.1.6*
G04 #@! TF.CreationDate,2020-07-28T12:29:14+02:00*
G04 #@! TF.ProjectId,ESP32_lamp,45535033-325f-46c6-916d-702e6b696361,rev?*
G04 #@! TF.SameCoordinates,Original*
G04 #@! TF.FileFunction,Paste,Top*
G04 #@! TF.FilePolarity,Positive*
%FSLAX46Y46*%
G04 Gerber Fmt 4.6, Leading zero omitted, Abs format (unit mm)*
G04 Created by KiCad (PCBNEW 5.1.6) date 2020-07-28 12:29:14*
%MOMM*%
%LPD*%
G01*
G04 APERTURE LIST*
%ADD10C,0.100000*%
%ADD11R,2.200000X1.000000*%
%ADD12R,1.000000X2.200000*%
%ADD13R,0.450000X0.700000*%
%ADD14R,0.700000X0.450000*%
G04 APERTURE END LIST*
D10*
G36*
X136000000Y-112000000D02*
G01*
X133000000Y-112000000D01*
X133000000Y-108000000D01*
X136000000Y-108000000D01*
X136000000Y-112000000D01*
G37*
X136000000Y-112000000D02*
X133000000Y-112000000D01*
X133000000Y-108000000D01*
X136000000Y-108000000D01*
X136000000Y-112000000D01*
G36*
X153000000Y-92000000D02*
G01*
X153000000Y-89000000D01*
X157000000Y-89000000D01*
X157000000Y-92000000D01*
X153000000Y-92000000D01*
G37*
X153000000Y-92000000D02*
X153000000Y-89000000D01*
X157000000Y-89000000D01*
X157000000Y-92000000D01*
X153000000Y-92000000D01*
G36*
X173500000Y-108000000D02*
G01*
X176500000Y-108000000D01*
X176500000Y-112000000D01*
X173500000Y-112000000D01*
X173500000Y-108000000D01*
G37*
X173500000Y-108000000D02*
X176500000Y-108000000D01*
X176500000Y-112000000D01*
X173500000Y-112000000D01*
X173500000Y-108000000D01*
D11*
X137600000Y-111600000D03*
X137600000Y-110000000D03*
X137600000Y-108400000D03*
X131400000Y-108400000D03*
X131400000Y-110000000D03*
X131400000Y-111600000D03*
D12*
X153400000Y-93600000D03*
X155000000Y-93600000D03*
X156600000Y-93600000D03*
X156600000Y-87400000D03*
X155000000Y-87400000D03*
X153400000Y-87400000D03*
D11*
X171900000Y-108400000D03*
X171900000Y-110000000D03*
X171900000Y-111600000D03*
X178100000Y-111600000D03*
X178100000Y-110000000D03*
X178100000Y-108400000D03*
G36*
G01*
X155625000Y-97975000D02*
X154375000Y-97975000D01*
G75*
G02*
X154125000Y-97725000I0J250000D01*
G01*
X154125000Y-96975000D01*
G75*
G02*
X154375000Y-96725000I250000J0D01*
G01*
X155625000Y-96725000D01*
G75*
G02*
X155875000Y-96975000I0J-250000D01*
G01*
X155875000Y-97725000D01*
G75*
G02*
X155625000Y-97975000I-250000J0D01*
G01*
G37*
G36*
G01*
X155625000Y-100775000D02*
X154375000Y-100775000D01*
G75*
G02*
X154125000Y-100525000I0J250000D01*
G01*
X154125000Y-99775000D01*
G75*
G02*
X154375000Y-99525000I250000J0D01*
G01*
X155625000Y-99525000D01*
G75*
G02*
X155875000Y-99775000I0J-250000D01*
G01*
X155875000Y-100525000D01*
G75*
G02*
X155625000Y-100775000I-250000J0D01*
G01*
G37*
G36*
G01*
X153375000Y-121525000D02*
X154625000Y-121525000D01*
G75*
G02*
X154875000Y-121775000I0J-250000D01*
G01*
X154875000Y-122525000D01*
G75*
G02*
X154625000Y-122775000I-250000J0D01*
G01*
X153375000Y-122775000D01*
G75*
G02*
X153125000Y-122525000I0J250000D01*
G01*
X153125000Y-121775000D01*
G75*
G02*
X153375000Y-121525000I250000J0D01*
G01*
G37*
G36*
G01*
X153375000Y-118725000D02*
X154625000Y-118725000D01*
G75*
G02*
X154875000Y-118975000I0J-250000D01*
G01*
X154875000Y-119725000D01*
G75*
G02*
X154625000Y-119975000I-250000J0D01*
G01*
X153375000Y-119975000D01*
G75*
G02*
X153125000Y-119725000I0J250000D01*
G01*
X153125000Y-118975000D01*
G75*
G02*
X153375000Y-118725000I250000J0D01*
G01*
G37*
G36*
G01*
X167275000Y-110625000D02*
X167275000Y-109375000D01*
G75*
G02*
X167525000Y-109125000I250000J0D01*
G01*
X168275000Y-109125000D01*
G75*
G02*
X168525000Y-109375000I0J-250000D01*
G01*
X168525000Y-110625000D01*
G75*
G02*
X168275000Y-110875000I-250000J0D01*
G01*
X167525000Y-110875000D01*
G75*
G02*
X167275000Y-110625000I0J250000D01*
G01*
G37*
G36*
G01*
X164475000Y-110625000D02*
X164475000Y-109375000D01*
G75*
G02*
X164725000Y-109125000I250000J0D01*
G01*
X165475000Y-109125000D01*
G75*
G02*
X165725000Y-109375000I0J-250000D01*
G01*
X165725000Y-110625000D01*
G75*
G02*
X165475000Y-110875000I-250000J0D01*
G01*
X164725000Y-110875000D01*
G75*
G02*
X164475000Y-110625000I0J250000D01*
G01*
G37*
G36*
G01*
X161125000Y-121525000D02*
X162375000Y-121525000D01*
G75*
G02*
X162625000Y-121775000I0J-250000D01*
G01*
X162625000Y-122525000D01*
G75*
G02*
X162375000Y-122775000I-250000J0D01*
G01*
X161125000Y-122775000D01*
G75*
G02*
X160875000Y-122525000I0J250000D01*
G01*
X160875000Y-121775000D01*
G75*
G02*
X161125000Y-121525000I250000J0D01*
G01*
G37*
G36*
G01*
X161125000Y-118725000D02*
X162375000Y-118725000D01*
G75*
G02*
X162625000Y-118975000I0J-250000D01*
G01*
X162625000Y-119725000D01*
G75*
G02*
X162375000Y-119975000I-250000J0D01*
G01*
X161125000Y-119975000D01*
G75*
G02*
X160875000Y-119725000I0J250000D01*
G01*
X160875000Y-118975000D01*
G75*
G02*
X161125000Y-118725000I250000J0D01*
G01*
G37*
G36*
G01*
X158375000Y-97975000D02*
X157125000Y-97975000D01*
G75*
G02*
X156875000Y-97725000I0J250000D01*
G01*
X156875000Y-96975000D01*
G75*
G02*
X157125000Y-96725000I250000J0D01*
G01*
X158375000Y-96725000D01*
G75*
G02*
X158625000Y-96975000I0J-250000D01*
G01*
X158625000Y-97725000D01*
G75*
G02*
X158375000Y-97975000I-250000J0D01*
G01*
G37*
G36*
G01*
X158375000Y-100775000D02*
X157125000Y-100775000D01*
G75*
G02*
X156875000Y-100525000I0J250000D01*
G01*
X156875000Y-99775000D01*
G75*
G02*
X157125000Y-99525000I250000J0D01*
G01*
X158375000Y-99525000D01*
G75*
G02*
X158625000Y-99775000I0J-250000D01*
G01*
X158625000Y-100525000D01*
G75*
G02*
X158375000Y-100775000I-250000J0D01*
G01*
G37*
G36*
G01*
X155875000Y-121525000D02*
X157125000Y-121525000D01*
G75*
G02*
X157375000Y-121775000I0J-250000D01*
G01*
X157375000Y-122525000D01*
G75*
G02*
X157125000Y-122775000I-250000J0D01*
G01*
X155875000Y-122775000D01*
G75*
G02*
X155625000Y-122525000I0J250000D01*
G01*
X155625000Y-121775000D01*
G75*
G02*
X155875000Y-121525000I250000J0D01*
G01*
G37*
G36*
G01*
X155875000Y-118725000D02*
X157125000Y-118725000D01*
G75*
G02*
X157375000Y-118975000I0J-250000D01*
G01*
X157375000Y-119725000D01*
G75*
G02*
X157125000Y-119975000I-250000J0D01*
G01*
X155875000Y-119975000D01*
G75*
G02*
X155625000Y-119725000I0J250000D01*
G01*
X155625000Y-118975000D01*
G75*
G02*
X155875000Y-118725000I250000J0D01*
G01*
G37*
G36*
G01*
X167275000Y-113125000D02*
X167275000Y-111875000D01*
G75*
G02*
X167525000Y-111625000I250000J0D01*
G01*
X168275000Y-111625000D01*
G75*
G02*
X168525000Y-111875000I0J-250000D01*
G01*
X168525000Y-113125000D01*
G75*
G02*
X168275000Y-113375000I-250000J0D01*
G01*
X167525000Y-113375000D01*
G75*
G02*
X167275000Y-113125000I0J250000D01*
G01*
G37*
G36*
G01*
X164475000Y-113125000D02*
X164475000Y-111875000D01*
G75*
G02*
X164725000Y-111625000I250000J0D01*
G01*
X165475000Y-111625000D01*
G75*
G02*
X165725000Y-111875000I0J-250000D01*
G01*
X165725000Y-113125000D01*
G75*
G02*
X165475000Y-113375000I-250000J0D01*
G01*
X164725000Y-113375000D01*
G75*
G02*
X164475000Y-113125000I0J250000D01*
G01*
G37*
G36*
G01*
X163625000Y-121525000D02*
X164875000Y-121525000D01*
G75*
G02*
X165125000Y-121775000I0J-250000D01*
G01*
X165125000Y-122525000D01*
G75*
G02*
X164875000Y-122775000I-250000J0D01*
G01*
X163625000Y-122775000D01*
G75*
G02*
X163375000Y-122525000I0J250000D01*
G01*
X163375000Y-121775000D01*
G75*
G02*
X163625000Y-121525000I250000J0D01*
G01*
G37*
G36*
G01*
X163625000Y-118725000D02*
X164875000Y-118725000D01*
G75*
G02*
X165125000Y-118975000I0J-250000D01*
G01*
X165125000Y-119725000D01*
G75*
G02*
X164875000Y-119975000I-250000J0D01*
G01*
X163625000Y-119975000D01*
G75*
G02*
X163375000Y-119725000I0J250000D01*
G01*
X163375000Y-118975000D01*
G75*
G02*
X163625000Y-118725000I250000J0D01*
G01*
G37*
G36*
G01*
X152875000Y-97975000D02*
X151625000Y-97975000D01*
G75*
G02*
X151375000Y-97725000I0J250000D01*
G01*
X151375000Y-96975000D01*
G75*
G02*
X151625000Y-96725000I250000J0D01*
G01*
X152875000Y-96725000D01*
G75*
G02*
X153125000Y-96975000I0J-250000D01*
G01*
X153125000Y-97725000D01*
G75*
G02*
X152875000Y-97975000I-250000J0D01*
G01*
G37*
G36*
G01*
X152875000Y-100775000D02*
X151625000Y-100775000D01*
G75*
G02*
X151375000Y-100525000I0J250000D01*
G01*
X151375000Y-99775000D01*
G75*
G02*
X151625000Y-99525000I250000J0D01*
G01*
X152875000Y-99525000D01*
G75*
G02*
X153125000Y-99775000I0J-250000D01*
G01*
X153125000Y-100525000D01*
G75*
G02*
X152875000Y-100775000I-250000J0D01*
G01*
G37*
G36*
G01*
X150875000Y-121525000D02*
X152125000Y-121525000D01*
G75*
G02*
X152375000Y-121775000I0J-250000D01*
G01*
X152375000Y-122525000D01*
G75*
G02*
X152125000Y-122775000I-250000J0D01*
G01*
X150875000Y-122775000D01*
G75*
G02*
X150625000Y-122525000I0J250000D01*
G01*
X150625000Y-121775000D01*
G75*
G02*
X150875000Y-121525000I250000J0D01*
G01*
G37*
G36*
G01*
X150875000Y-118725000D02*
X152125000Y-118725000D01*
G75*
G02*
X152375000Y-118975000I0J-250000D01*
G01*
X152375000Y-119725000D01*
G75*
G02*
X152125000Y-119975000I-250000J0D01*
G01*
X150875000Y-119975000D01*
G75*
G02*
X150625000Y-119725000I0J250000D01*
G01*
X150625000Y-118975000D01*
G75*
G02*
X150875000Y-118725000I250000J0D01*
G01*
G37*
G36*
G01*
X167275000Y-108125000D02*
X167275000Y-106875000D01*
G75*
G02*
X167525000Y-106625000I250000J0D01*
G01*
X168275000Y-106625000D01*
G75*
G02*
X168525000Y-106875000I0J-250000D01*
G01*
X168525000Y-108125000D01*
G75*
G02*
X168275000Y-108375000I-250000J0D01*
G01*
X167525000Y-108375000D01*
G75*
G02*
X167275000Y-108125000I0J250000D01*
G01*
G37*
G36*
G01*
X164475000Y-108125000D02*
X164475000Y-106875000D01*
G75*
G02*
X164725000Y-106625000I250000J0D01*
G01*
X165475000Y-106625000D01*
G75*
G02*
X165725000Y-106875000I0J-250000D01*
G01*
X165725000Y-108125000D01*
G75*
G02*
X165475000Y-108375000I-250000J0D01*
G01*
X164725000Y-108375000D01*
G75*
G02*
X164475000Y-108125000I0J250000D01*
G01*
G37*
G36*
G01*
X158625000Y-121525000D02*
X159875000Y-121525000D01*
G75*
G02*
X160125000Y-121775000I0J-250000D01*
G01*
X160125000Y-122525000D01*
G75*
G02*
X159875000Y-122775000I-250000J0D01*
G01*
X158625000Y-122775000D01*
G75*
G02*
X158375000Y-122525000I0J250000D01*
G01*
X158375000Y-121775000D01*
G75*
G02*
X158625000Y-121525000I250000J0D01*
G01*
G37*
G36*
G01*
X158625000Y-118725000D02*
X159875000Y-118725000D01*
G75*
G02*
X160125000Y-118975000I0J-250000D01*
G01*
X160125000Y-119725000D01*
G75*
G02*
X159875000Y-119975000I-250000J0D01*
G01*
X158625000Y-119975000D01*
G75*
G02*
X158375000Y-119725000I0J250000D01*
G01*
X158375000Y-118975000D01*
G75*
G02*
X158625000Y-118725000I250000J0D01*
G01*
G37*
G36*
G01*
X141875000Y-106875000D02*
X141875000Y-108125000D01*
G75*
G02*
X141625000Y-108375000I-250000J0D01*
G01*
X140875000Y-108375000D01*
G75*
G02*
X140625000Y-108125000I0J250000D01*
G01*
X140625000Y-106875000D01*
G75*
G02*
X140875000Y-106625000I250000J0D01*
G01*
X141625000Y-106625000D01*
G75*
G02*
X141875000Y-106875000I0J-250000D01*
G01*
G37*
G36*
G01*
X144675000Y-106875000D02*
X144675000Y-108125000D01*
G75*
G02*
X144425000Y-108375000I-250000J0D01*
G01*
X143675000Y-108375000D01*
G75*
G02*
X143425000Y-108125000I0J250000D01*
G01*
X143425000Y-106875000D01*
G75*
G02*
X143675000Y-106625000I250000J0D01*
G01*
X144425000Y-106625000D01*
G75*
G02*
X144675000Y-106875000I0J-250000D01*
G01*
G37*
G36*
G01*
X141825000Y-109375000D02*
X141825000Y-110625000D01*
G75*
G02*
X141575000Y-110875000I-250000J0D01*
G01*
X140825000Y-110875000D01*
G75*
G02*
X140575000Y-110625000I0J250000D01*
G01*
X140575000Y-109375000D01*
G75*
G02*
X140825000Y-109125000I250000J0D01*
G01*
X141575000Y-109125000D01*
G75*
G02*
X141825000Y-109375000I0J-250000D01*
G01*
G37*
G36*
G01*
X144625000Y-109375000D02*
X144625000Y-110625000D01*
G75*
G02*
X144375000Y-110875000I-250000J0D01*
G01*
X143625000Y-110875000D01*
G75*
G02*
X143375000Y-110625000I0J250000D01*
G01*
X143375000Y-109375000D01*
G75*
G02*
X143625000Y-109125000I250000J0D01*
G01*
X144375000Y-109125000D01*
G75*
G02*
X144625000Y-109375000I0J-250000D01*
G01*
G37*
G36*
G01*
X141825000Y-111875000D02*
X141825000Y-113125000D01*
G75*
G02*
X141575000Y-113375000I-250000J0D01*
G01*
X140825000Y-113375000D01*
G75*
G02*
X140575000Y-113125000I0J250000D01*
G01*
X140575000Y-111875000D01*
G75*
G02*
X140825000Y-111625000I250000J0D01*
G01*
X141575000Y-111625000D01*
G75*
G02*
X141825000Y-111875000I0J-250000D01*
G01*
G37*
G36*
G01*
X144625000Y-111875000D02*
X144625000Y-113125000D01*
G75*
G02*
X144375000Y-113375000I-250000J0D01*
G01*
X143625000Y-113375000D01*
G75*
G02*
X143375000Y-113125000I0J250000D01*
G01*
X143375000Y-111875000D01*
G75*
G02*
X143625000Y-111625000I250000J0D01*
G01*
X144375000Y-111625000D01*
G75*
G02*
X144625000Y-111875000I0J-250000D01*
G01*
G37*
G36*
G01*
X148375000Y-121525000D02*
X149625000Y-121525000D01*
G75*
G02*
X149875000Y-121775000I0J-250000D01*
G01*
X149875000Y-122525000D01*
G75*
G02*
X149625000Y-122775000I-250000J0D01*
G01*
X148375000Y-122775000D01*
G75*
G02*
X148125000Y-122525000I0J250000D01*
G01*
X148125000Y-121775000D01*
G75*
G02*
X148375000Y-121525000I250000J0D01*
G01*
G37*
G36*
G01*
X148375000Y-118725000D02*
X149625000Y-118725000D01*
G75*
G02*
X149875000Y-118975000I0J-250000D01*
G01*
X149875000Y-119725000D01*
G75*
G02*
X149625000Y-119975000I-250000J0D01*
G01*
X148375000Y-119975000D01*
G75*
G02*
X148125000Y-119725000I0J250000D01*
G01*
X148125000Y-118975000D01*
G75*
G02*
X148375000Y-118725000I250000J0D01*
G01*
G37*
G36*
G01*
X145875000Y-121525000D02*
X147125000Y-121525000D01*
G75*
G02*
X147375000Y-121775000I0J-250000D01*
G01*
X147375000Y-122525000D01*
G75*
G02*
X147125000Y-122775000I-250000J0D01*
G01*
X145875000Y-122775000D01*
G75*
G02*
X145625000Y-122525000I0J250000D01*
G01*
X145625000Y-121775000D01*
G75*
G02*
X145875000Y-121525000I250000J0D01*
G01*
G37*
G36*
G01*
X145875000Y-118725000D02*
X147125000Y-118725000D01*
G75*
G02*
X147375000Y-118975000I0J-250000D01*
G01*
X147375000Y-119725000D01*
G75*
G02*
X147125000Y-119975000I-250000J0D01*
G01*
X145875000Y-119975000D01*
G75*
G02*
X145625000Y-119725000I0J250000D01*
G01*
X145625000Y-118975000D01*
G75*
G02*
X145875000Y-118725000I250000J0D01*
G01*
G37*
G36*
G01*
X143375000Y-121625000D02*
X144625000Y-121625000D01*
G75*
G02*
X144875000Y-121875000I0J-250000D01*
G01*
X144875000Y-122625000D01*
G75*
G02*
X144625000Y-122875000I-250000J0D01*
G01*
X143375000Y-122875000D01*
G75*
G02*
X143125000Y-122625000I0J250000D01*
G01*
X143125000Y-121875000D01*
G75*
G02*
X143375000Y-121625000I250000J0D01*
G01*
G37*
G36*
G01*
X143375000Y-118825000D02*
X144625000Y-118825000D01*
G75*
G02*
X144875000Y-119075000I0J-250000D01*
G01*
X144875000Y-119825000D01*
G75*
G02*
X144625000Y-120075000I-250000J0D01*
G01*
X143375000Y-120075000D01*
G75*
G02*
X143125000Y-119825000I0J250000D01*
G01*
X143125000Y-119075000D01*
G75*
G02*
X143375000Y-118825000I250000J0D01*
G01*
G37*
D13*
X155000000Y-102500000D03*
X155650000Y-104500000D03*
X154350000Y-104500000D03*
D14*
X163000000Y-110000000D03*
X161000000Y-110650000D03*
X161000000Y-109350000D03*
D13*
X158000000Y-102500000D03*
X158650000Y-104500000D03*
X157350000Y-104500000D03*
D14*
X163000000Y-113000000D03*
X161000000Y-113650000D03*
X161000000Y-112350000D03*
D13*
X152000000Y-102500000D03*
X152650000Y-104500000D03*
X151350000Y-104500000D03*
D14*
X163000000Y-107000000D03*
X161000000Y-107650000D03*
X161000000Y-106350000D03*
X146000000Y-107500000D03*
X148000000Y-106850000D03*
X148000000Y-108150000D03*
X146000000Y-110000000D03*
X148000000Y-109350000D03*
X148000000Y-110650000D03*
X146000000Y-112500000D03*
X148000000Y-111850000D03*
X148000000Y-113150000D03*
M02*
