G04 #@! TF.GenerationSoftware,KiCad,Pcbnew,5.1.6*
G04 #@! TF.CreationDate,2020-07-28T12:29:14+02:00*
G04 #@! TF.ProjectId,ESP32_lamp,45535033-325f-46c6-916d-702e6b696361,rev?*
G04 #@! TF.SameCoordinates,Original*
G04 #@! TF.FileFunction,Legend,Bot*
G04 #@! TF.FilePolarity,Positive*
%FSLAX46Y46*%
G04 Gerber Fmt 4.6, Leading zero omitted, Abs format (unit mm)*
G04 Created by KiCad (PCBNEW 5.1.6) date 2020-07-28 12:29:14*
%MOMM*%
%LPD*%
G01*
G04 APERTURE LIST*
%ADD10C,0.120000*%
%ADD11C,0.150000*%
G04 APERTURE END LIST*
D10*
X173397936Y-119890000D02*
X174602064Y-119890000D01*
X173397936Y-121710000D02*
X174602064Y-121710000D01*
X184270000Y-129380000D02*
X184270000Y-125820000D01*
X186930000Y-126840000D02*
X186930000Y-123730000D01*
X186930000Y-124300000D02*
X186930000Y-123730000D01*
X184270000Y-131470000D02*
X184270000Y-130900000D01*
X184270000Y-130900000D02*
X182750000Y-130900000D01*
X186930000Y-131470000D02*
X186930000Y-128360000D01*
X184270000Y-123730000D02*
X186930000Y-123730000D01*
X184270000Y-131470000D02*
X186930000Y-131470000D01*
X179910000Y-129997936D02*
X179910000Y-131202064D01*
X178090000Y-129997936D02*
X178090000Y-131202064D01*
X148880000Y-119900000D02*
X148880000Y-119120000D01*
X148880000Y-119120000D02*
X149880000Y-119120000D01*
X167120000Y-119900000D02*
X167120000Y-119120000D01*
X167120000Y-119120000D02*
X166120000Y-119120000D01*
X148880000Y-144865000D02*
X167120000Y-144865000D01*
X167120000Y-144865000D02*
X167120000Y-138445000D01*
X148880000Y-144865000D02*
X148880000Y-138445000D01*
X148880000Y-138445000D02*
X148500000Y-138445000D01*
X136602064Y-126090000D02*
X135397936Y-126090000D01*
X136602064Y-127910000D02*
X135397936Y-127910000D01*
X173310000Y-126052064D02*
X173310000Y-124847936D01*
X171490000Y-126052064D02*
X171490000Y-124847936D01*
X170760000Y-126052064D02*
X170760000Y-124847936D01*
X168940000Y-126052064D02*
X168940000Y-124847936D01*
X187015000Y-114015000D02*
X183485000Y-114015000D01*
X187015000Y-120485000D02*
X183485000Y-120485000D01*
X188340000Y-114080000D02*
X187015000Y-114080000D01*
X187015000Y-114015000D02*
X187015000Y-114080000D01*
X183485000Y-114015000D02*
X183485000Y-114080000D01*
X187015000Y-120420000D02*
X187015000Y-120485000D01*
X183485000Y-120420000D02*
X183485000Y-120485000D01*
X124590000Y-122397936D02*
X124590000Y-123602064D01*
X126410000Y-122397936D02*
X126410000Y-123602064D01*
X143602064Y-132590000D02*
X142397936Y-132590000D01*
X143602064Y-134410000D02*
X142397936Y-134410000D01*
X124590000Y-117397936D02*
X124590000Y-118602064D01*
X126410000Y-117397936D02*
X126410000Y-118602064D01*
X145840000Y-131897936D02*
X145840000Y-133102064D01*
X147660000Y-131897936D02*
X147660000Y-133102064D01*
X145160000Y-137852064D02*
X145160000Y-136647936D01*
X143340000Y-137852064D02*
X143340000Y-136647936D01*
X147660000Y-137852064D02*
X147660000Y-136647936D01*
X145840000Y-137852064D02*
X145840000Y-136647936D01*
X136602064Y-133590000D02*
X135397936Y-133590000D01*
X136602064Y-135410000D02*
X135397936Y-135410000D01*
X136602064Y-131090000D02*
X135397936Y-131090000D01*
X136602064Y-132910000D02*
X135397936Y-132910000D01*
X136602064Y-128590000D02*
X135397936Y-128590000D01*
X136602064Y-130410000D02*
X135397936Y-130410000D01*
X132102064Y-117340000D02*
X130897936Y-117340000D01*
X132102064Y-119160000D02*
X130897936Y-119160000D01*
X128910000Y-118602064D02*
X128910000Y-117397936D01*
X127090000Y-118602064D02*
X127090000Y-117397936D01*
X129640000Y-130397936D02*
X129640000Y-131602064D01*
X131460000Y-130397936D02*
X131460000Y-131602064D01*
X127090000Y-130397936D02*
X127090000Y-131602064D01*
X128910000Y-130397936D02*
X128910000Y-131602064D01*
X138130000Y-119870000D02*
X138130000Y-124970000D01*
X132930000Y-119870000D02*
X132930000Y-124970000D01*
X171990000Y-131360000D02*
X171990000Y-132410000D01*
X177210000Y-130240000D02*
X177210000Y-129190000D01*
X177210000Y-131360000D02*
X177210000Y-132410000D01*
D11*
X132205000Y-126795000D02*
X132155000Y-126795000D01*
X132205000Y-122645000D02*
X132060000Y-122645000D01*
X127055000Y-122645000D02*
X127200000Y-122645000D01*
X127055000Y-126795000D02*
X127200000Y-126795000D01*
X132205000Y-126795000D02*
X132205000Y-122645000D01*
X127055000Y-126795000D02*
X127055000Y-122645000D01*
X132155000Y-126795000D02*
X132155000Y-128195000D01*
D10*
X125250000Y-129550000D02*
X125250000Y-128950000D01*
X124950000Y-129250000D02*
X125250000Y-128950000D01*
X124950000Y-129250000D02*
X125250000Y-129550000D01*
X124720000Y-134420000D02*
X124720000Y-133550000D01*
X124720000Y-126680000D02*
X122650000Y-126680000D01*
X124720000Y-134420000D02*
X122650000Y-134420000D01*
X124720000Y-127550000D02*
X124720000Y-126680000D01*
X120250000Y-126680000D02*
X120000000Y-126680000D01*
X120250000Y-134420000D02*
X120000000Y-134420000D01*
X168600000Y-119800000D02*
X168600000Y-121800000D01*
X171400000Y-119800000D02*
X168600000Y-119800000D01*
X171400000Y-121800000D02*
X171400000Y-119800000D01*
X168600000Y-121800000D02*
X171400000Y-121800000D01*
D11*
X174166666Y-123072380D02*
X174500000Y-122596190D01*
X174738095Y-123072380D02*
X174738095Y-122072380D01*
X174357142Y-122072380D01*
X174261904Y-122120000D01*
X174214285Y-122167619D01*
X174166666Y-122262857D01*
X174166666Y-122405714D01*
X174214285Y-122500952D01*
X174261904Y-122548571D01*
X174357142Y-122596190D01*
X174738095Y-122596190D01*
X173309523Y-122072380D02*
X173500000Y-122072380D01*
X173595238Y-122120000D01*
X173642857Y-122167619D01*
X173738095Y-122310476D01*
X173785714Y-122500952D01*
X173785714Y-122881904D01*
X173738095Y-122977142D01*
X173690476Y-123024761D01*
X173595238Y-123072380D01*
X173404761Y-123072380D01*
X173309523Y-123024761D01*
X173261904Y-122977142D01*
X173214285Y-122881904D01*
X173214285Y-122643809D01*
X173261904Y-122548571D01*
X173309523Y-122500952D01*
X173404761Y-122453333D01*
X173595238Y-122453333D01*
X173690476Y-122500952D01*
X173738095Y-122548571D01*
X173785714Y-122643809D01*
X185933333Y-131922380D02*
X185933333Y-132636666D01*
X185980952Y-132779523D01*
X186076190Y-132874761D01*
X186219047Y-132922380D01*
X186314285Y-132922380D01*
X185028571Y-132255714D02*
X185028571Y-132922380D01*
X185266666Y-131874761D02*
X185504761Y-132589047D01*
X184885714Y-132589047D01*
X177537142Y-129957142D02*
X177584761Y-129909523D01*
X177632380Y-129766666D01*
X177632380Y-129671428D01*
X177584761Y-129528571D01*
X177489523Y-129433333D01*
X177394285Y-129385714D01*
X177203809Y-129338095D01*
X177060952Y-129338095D01*
X176870476Y-129385714D01*
X176775238Y-129433333D01*
X176680000Y-129528571D01*
X176632380Y-129671428D01*
X176632380Y-129766666D01*
X176680000Y-129909523D01*
X176727619Y-129957142D01*
X177632380Y-130909523D02*
X177632380Y-130338095D01*
X177632380Y-130623809D02*
X176632380Y-130623809D01*
X176775238Y-130528571D01*
X176870476Y-130433333D01*
X176918095Y-130338095D01*
X176727619Y-131290476D02*
X176680000Y-131338095D01*
X176632380Y-131433333D01*
X176632380Y-131671428D01*
X176680000Y-131766666D01*
X176727619Y-131814285D01*
X176822857Y-131861904D01*
X176918095Y-131861904D01*
X177060952Y-131814285D01*
X177632380Y-131242857D01*
X177632380Y-131861904D01*
X147937619Y-121331904D02*
X147128095Y-121331904D01*
X147032857Y-121284285D01*
X146985238Y-121236666D01*
X146937619Y-121141428D01*
X146937619Y-120950952D01*
X146985238Y-120855714D01*
X147032857Y-120808095D01*
X147128095Y-120760476D01*
X147937619Y-120760476D01*
X147842380Y-120331904D02*
X147890000Y-120284285D01*
X147937619Y-120189047D01*
X147937619Y-119950952D01*
X147890000Y-119855714D01*
X147842380Y-119808095D01*
X147747142Y-119760476D01*
X147651904Y-119760476D01*
X147509047Y-119808095D01*
X146937619Y-120379523D01*
X146937619Y-119760476D01*
X136166666Y-125537142D02*
X136214285Y-125584761D01*
X136357142Y-125632380D01*
X136452380Y-125632380D01*
X136595238Y-125584761D01*
X136690476Y-125489523D01*
X136738095Y-125394285D01*
X136785714Y-125203809D01*
X136785714Y-125060952D01*
X136738095Y-124870476D01*
X136690476Y-124775238D01*
X136595238Y-124680000D01*
X136452380Y-124632380D01*
X136357142Y-124632380D01*
X136214285Y-124680000D01*
X136166666Y-124727619D01*
X135833333Y-124632380D02*
X135166666Y-124632380D01*
X135595238Y-125632380D01*
X174672380Y-125283333D02*
X174196190Y-124950000D01*
X174672380Y-124711904D02*
X173672380Y-124711904D01*
X173672380Y-125092857D01*
X173720000Y-125188095D01*
X173767619Y-125235714D01*
X173862857Y-125283333D01*
X174005714Y-125283333D01*
X174100952Y-125235714D01*
X174148571Y-125188095D01*
X174196190Y-125092857D01*
X174196190Y-124711904D01*
X173672380Y-126188095D02*
X173672380Y-125711904D01*
X174148571Y-125664285D01*
X174100952Y-125711904D01*
X174053333Y-125807142D01*
X174053333Y-126045238D01*
X174100952Y-126140476D01*
X174148571Y-126188095D01*
X174243809Y-126235714D01*
X174481904Y-126235714D01*
X174577142Y-126188095D01*
X174624761Y-126140476D01*
X174672380Y-126045238D01*
X174672380Y-125807142D01*
X174624761Y-125711904D01*
X174577142Y-125664285D01*
X172122380Y-125283333D02*
X171646190Y-124950000D01*
X172122380Y-124711904D02*
X171122380Y-124711904D01*
X171122380Y-125092857D01*
X171170000Y-125188095D01*
X171217619Y-125235714D01*
X171312857Y-125283333D01*
X171455714Y-125283333D01*
X171550952Y-125235714D01*
X171598571Y-125188095D01*
X171646190Y-125092857D01*
X171646190Y-124711904D01*
X171455714Y-126140476D02*
X172122380Y-126140476D01*
X171074761Y-125902380D02*
X171789047Y-125664285D01*
X171789047Y-126283333D01*
X185583333Y-112467380D02*
X185583333Y-113181666D01*
X185630952Y-113324523D01*
X185726190Y-113419761D01*
X185869047Y-113467380D01*
X185964285Y-113467380D01*
X185154761Y-112562619D02*
X185107142Y-112515000D01*
X185011904Y-112467380D01*
X184773809Y-112467380D01*
X184678571Y-112515000D01*
X184630952Y-112562619D01*
X184583333Y-112657857D01*
X184583333Y-112753095D01*
X184630952Y-112895952D01*
X185202380Y-113467380D01*
X184583333Y-113467380D01*
X124132380Y-122833333D02*
X123656190Y-122500000D01*
X124132380Y-122261904D02*
X123132380Y-122261904D01*
X123132380Y-122642857D01*
X123180000Y-122738095D01*
X123227619Y-122785714D01*
X123322857Y-122833333D01*
X123465714Y-122833333D01*
X123560952Y-122785714D01*
X123608571Y-122738095D01*
X123656190Y-122642857D01*
X123656190Y-122261904D01*
X123227619Y-123214285D02*
X123180000Y-123261904D01*
X123132380Y-123357142D01*
X123132380Y-123595238D01*
X123180000Y-123690476D01*
X123227619Y-123738095D01*
X123322857Y-123785714D01*
X123418095Y-123785714D01*
X123560952Y-123738095D01*
X124132380Y-123166666D01*
X124132380Y-123785714D01*
X143166666Y-132132380D02*
X143500000Y-131656190D01*
X143738095Y-132132380D02*
X143738095Y-131132380D01*
X143357142Y-131132380D01*
X143261904Y-131180000D01*
X143214285Y-131227619D01*
X143166666Y-131322857D01*
X143166666Y-131465714D01*
X143214285Y-131560952D01*
X143261904Y-131608571D01*
X143357142Y-131656190D01*
X143738095Y-131656190D01*
X142833333Y-131132380D02*
X142214285Y-131132380D01*
X142547619Y-131513333D01*
X142404761Y-131513333D01*
X142309523Y-131560952D01*
X142261904Y-131608571D01*
X142214285Y-131703809D01*
X142214285Y-131941904D01*
X142261904Y-132037142D01*
X142309523Y-132084761D01*
X142404761Y-132132380D01*
X142690476Y-132132380D01*
X142785714Y-132084761D01*
X142833333Y-132037142D01*
X124132380Y-117833333D02*
X123656190Y-117500000D01*
X124132380Y-117261904D02*
X123132380Y-117261904D01*
X123132380Y-117642857D01*
X123180000Y-117738095D01*
X123227619Y-117785714D01*
X123322857Y-117833333D01*
X123465714Y-117833333D01*
X123560952Y-117785714D01*
X123608571Y-117738095D01*
X123656190Y-117642857D01*
X123656190Y-117261904D01*
X124132380Y-118785714D02*
X124132380Y-118214285D01*
X124132380Y-118500000D02*
X123132380Y-118500000D01*
X123275238Y-118404761D01*
X123370476Y-118309523D01*
X123418095Y-118214285D01*
X145287142Y-132333333D02*
X145334761Y-132285714D01*
X145382380Y-132142857D01*
X145382380Y-132047619D01*
X145334761Y-131904761D01*
X145239523Y-131809523D01*
X145144285Y-131761904D01*
X144953809Y-131714285D01*
X144810952Y-131714285D01*
X144620476Y-131761904D01*
X144525238Y-131809523D01*
X144430000Y-131904761D01*
X144382380Y-132047619D01*
X144382380Y-132142857D01*
X144430000Y-132285714D01*
X144477619Y-132333333D01*
X145382380Y-132809523D02*
X145382380Y-133000000D01*
X145334761Y-133095238D01*
X145287142Y-133142857D01*
X145144285Y-133238095D01*
X144953809Y-133285714D01*
X144572857Y-133285714D01*
X144477619Y-133238095D01*
X144430000Y-133190476D01*
X144382380Y-133095238D01*
X144382380Y-132904761D01*
X144430000Y-132809523D01*
X144477619Y-132761904D01*
X144572857Y-132714285D01*
X144810952Y-132714285D01*
X144906190Y-132761904D01*
X144953809Y-132809523D01*
X145001428Y-132904761D01*
X145001428Y-133095238D01*
X144953809Y-133190476D01*
X144906190Y-133238095D01*
X144810952Y-133285714D01*
X146427142Y-136607142D02*
X146474761Y-136559523D01*
X146522380Y-136416666D01*
X146522380Y-136321428D01*
X146474761Y-136178571D01*
X146379523Y-136083333D01*
X146284285Y-136035714D01*
X146093809Y-135988095D01*
X145950952Y-135988095D01*
X145760476Y-136035714D01*
X145665238Y-136083333D01*
X145570000Y-136178571D01*
X145522380Y-136321428D01*
X145522380Y-136416666D01*
X145570000Y-136559523D01*
X145617619Y-136607142D01*
X146522380Y-137559523D02*
X146522380Y-136988095D01*
X146522380Y-137273809D02*
X145522380Y-137273809D01*
X145665238Y-137178571D01*
X145760476Y-137083333D01*
X145808095Y-136988095D01*
X146522380Y-138511904D02*
X146522380Y-137940476D01*
X146522380Y-138226190D02*
X145522380Y-138226190D01*
X145665238Y-138130952D01*
X145760476Y-138035714D01*
X145808095Y-137940476D01*
X148927142Y-136607142D02*
X148974761Y-136559523D01*
X149022380Y-136416666D01*
X149022380Y-136321428D01*
X148974761Y-136178571D01*
X148879523Y-136083333D01*
X148784285Y-136035714D01*
X148593809Y-135988095D01*
X148450952Y-135988095D01*
X148260476Y-136035714D01*
X148165238Y-136083333D01*
X148070000Y-136178571D01*
X148022380Y-136321428D01*
X148022380Y-136416666D01*
X148070000Y-136559523D01*
X148117619Y-136607142D01*
X149022380Y-137559523D02*
X149022380Y-136988095D01*
X149022380Y-137273809D02*
X148022380Y-137273809D01*
X148165238Y-137178571D01*
X148260476Y-137083333D01*
X148308095Y-136988095D01*
X148022380Y-138178571D02*
X148022380Y-138273809D01*
X148070000Y-138369047D01*
X148117619Y-138416666D01*
X148212857Y-138464285D01*
X148403333Y-138511904D01*
X148641428Y-138511904D01*
X148831904Y-138464285D01*
X148927142Y-138416666D01*
X148974761Y-138369047D01*
X149022380Y-138273809D01*
X149022380Y-138178571D01*
X148974761Y-138083333D01*
X148927142Y-138035714D01*
X148831904Y-137988095D01*
X148641428Y-137940476D01*
X148403333Y-137940476D01*
X148212857Y-137988095D01*
X148117619Y-138035714D01*
X148070000Y-138083333D01*
X148022380Y-138178571D01*
X136166666Y-133037142D02*
X136214285Y-133084761D01*
X136357142Y-133132380D01*
X136452380Y-133132380D01*
X136595238Y-133084761D01*
X136690476Y-132989523D01*
X136738095Y-132894285D01*
X136785714Y-132703809D01*
X136785714Y-132560952D01*
X136738095Y-132370476D01*
X136690476Y-132275238D01*
X136595238Y-132180000D01*
X136452380Y-132132380D01*
X136357142Y-132132380D01*
X136214285Y-132180000D01*
X136166666Y-132227619D01*
X135595238Y-132560952D02*
X135690476Y-132513333D01*
X135738095Y-132465714D01*
X135785714Y-132370476D01*
X135785714Y-132322857D01*
X135738095Y-132227619D01*
X135690476Y-132180000D01*
X135595238Y-132132380D01*
X135404761Y-132132380D01*
X135309523Y-132180000D01*
X135261904Y-132227619D01*
X135214285Y-132322857D01*
X135214285Y-132370476D01*
X135261904Y-132465714D01*
X135309523Y-132513333D01*
X135404761Y-132560952D01*
X135595238Y-132560952D01*
X135690476Y-132608571D01*
X135738095Y-132656190D01*
X135785714Y-132751428D01*
X135785714Y-132941904D01*
X135738095Y-133037142D01*
X135690476Y-133084761D01*
X135595238Y-133132380D01*
X135404761Y-133132380D01*
X135309523Y-133084761D01*
X135261904Y-133037142D01*
X135214285Y-132941904D01*
X135214285Y-132751428D01*
X135261904Y-132656190D01*
X135309523Y-132608571D01*
X135404761Y-132560952D01*
X136166666Y-130537142D02*
X136214285Y-130584761D01*
X136357142Y-130632380D01*
X136452380Y-130632380D01*
X136595238Y-130584761D01*
X136690476Y-130489523D01*
X136738095Y-130394285D01*
X136785714Y-130203809D01*
X136785714Y-130060952D01*
X136738095Y-129870476D01*
X136690476Y-129775238D01*
X136595238Y-129680000D01*
X136452380Y-129632380D01*
X136357142Y-129632380D01*
X136214285Y-129680000D01*
X136166666Y-129727619D01*
X135309523Y-129632380D02*
X135500000Y-129632380D01*
X135595238Y-129680000D01*
X135642857Y-129727619D01*
X135738095Y-129870476D01*
X135785714Y-130060952D01*
X135785714Y-130441904D01*
X135738095Y-130537142D01*
X135690476Y-130584761D01*
X135595238Y-130632380D01*
X135404761Y-130632380D01*
X135309523Y-130584761D01*
X135261904Y-130537142D01*
X135214285Y-130441904D01*
X135214285Y-130203809D01*
X135261904Y-130108571D01*
X135309523Y-130060952D01*
X135404761Y-130013333D01*
X135595238Y-130013333D01*
X135690476Y-130060952D01*
X135738095Y-130108571D01*
X135785714Y-130203809D01*
X136166666Y-128037142D02*
X136214285Y-128084761D01*
X136357142Y-128132380D01*
X136452380Y-128132380D01*
X136595238Y-128084761D01*
X136690476Y-127989523D01*
X136738095Y-127894285D01*
X136785714Y-127703809D01*
X136785714Y-127560952D01*
X136738095Y-127370476D01*
X136690476Y-127275238D01*
X136595238Y-127180000D01*
X136452380Y-127132380D01*
X136357142Y-127132380D01*
X136214285Y-127180000D01*
X136166666Y-127227619D01*
X135261904Y-127132380D02*
X135738095Y-127132380D01*
X135785714Y-127608571D01*
X135738095Y-127560952D01*
X135642857Y-127513333D01*
X135404761Y-127513333D01*
X135309523Y-127560952D01*
X135261904Y-127608571D01*
X135214285Y-127703809D01*
X135214285Y-127941904D01*
X135261904Y-128037142D01*
X135309523Y-128084761D01*
X135404761Y-128132380D01*
X135642857Y-128132380D01*
X135738095Y-128084761D01*
X135785714Y-128037142D01*
X131666666Y-116787142D02*
X131714285Y-116834761D01*
X131857142Y-116882380D01*
X131952380Y-116882380D01*
X132095238Y-116834761D01*
X132190476Y-116739523D01*
X132238095Y-116644285D01*
X132285714Y-116453809D01*
X132285714Y-116310952D01*
X132238095Y-116120476D01*
X132190476Y-116025238D01*
X132095238Y-115930000D01*
X131952380Y-115882380D01*
X131857142Y-115882380D01*
X131714285Y-115930000D01*
X131666666Y-115977619D01*
X130809523Y-116215714D02*
X130809523Y-116882380D01*
X131047619Y-115834761D02*
X131285714Y-116549047D01*
X130666666Y-116549047D01*
X130177142Y-117833333D02*
X130224761Y-117785714D01*
X130272380Y-117642857D01*
X130272380Y-117547619D01*
X130224761Y-117404761D01*
X130129523Y-117309523D01*
X130034285Y-117261904D01*
X129843809Y-117214285D01*
X129700952Y-117214285D01*
X129510476Y-117261904D01*
X129415238Y-117309523D01*
X129320000Y-117404761D01*
X129272380Y-117547619D01*
X129272380Y-117642857D01*
X129320000Y-117785714D01*
X129367619Y-117833333D01*
X129272380Y-118166666D02*
X129272380Y-118785714D01*
X129653333Y-118452380D01*
X129653333Y-118595238D01*
X129700952Y-118690476D01*
X129748571Y-118738095D01*
X129843809Y-118785714D01*
X130081904Y-118785714D01*
X130177142Y-118738095D01*
X130224761Y-118690476D01*
X130272380Y-118595238D01*
X130272380Y-118309523D01*
X130224761Y-118214285D01*
X130177142Y-118166666D01*
X129087142Y-130833333D02*
X129134761Y-130785714D01*
X129182380Y-130642857D01*
X129182380Y-130547619D01*
X129134761Y-130404761D01*
X129039523Y-130309523D01*
X128944285Y-130261904D01*
X128753809Y-130214285D01*
X128610952Y-130214285D01*
X128420476Y-130261904D01*
X128325238Y-130309523D01*
X128230000Y-130404761D01*
X128182380Y-130547619D01*
X128182380Y-130642857D01*
X128230000Y-130785714D01*
X128277619Y-130833333D01*
X128277619Y-131214285D02*
X128230000Y-131261904D01*
X128182380Y-131357142D01*
X128182380Y-131595238D01*
X128230000Y-131690476D01*
X128277619Y-131738095D01*
X128372857Y-131785714D01*
X128468095Y-131785714D01*
X128610952Y-131738095D01*
X129182380Y-131166666D01*
X129182380Y-131785714D01*
X126537142Y-130833333D02*
X126584761Y-130785714D01*
X126632380Y-130642857D01*
X126632380Y-130547619D01*
X126584761Y-130404761D01*
X126489523Y-130309523D01*
X126394285Y-130261904D01*
X126203809Y-130214285D01*
X126060952Y-130214285D01*
X125870476Y-130261904D01*
X125775238Y-130309523D01*
X125680000Y-130404761D01*
X125632380Y-130547619D01*
X125632380Y-130642857D01*
X125680000Y-130785714D01*
X125727619Y-130833333D01*
X126632380Y-131785714D02*
X126632380Y-131214285D01*
X126632380Y-131500000D02*
X125632380Y-131500000D01*
X125775238Y-131404761D01*
X125870476Y-131309523D01*
X125918095Y-131214285D01*
X132482380Y-122253333D02*
X132482380Y-121777142D01*
X131482380Y-121777142D01*
X132482380Y-123110476D02*
X132482380Y-122539047D01*
X132482380Y-122824761D02*
X131482380Y-122824761D01*
X131625238Y-122729523D01*
X131720476Y-122634285D01*
X131768095Y-122539047D01*
X170602380Y-130038095D02*
X171411904Y-130038095D01*
X171507142Y-130085714D01*
X171554761Y-130133333D01*
X171602380Y-130228571D01*
X171602380Y-130419047D01*
X171554761Y-130514285D01*
X171507142Y-130561904D01*
X171411904Y-130609523D01*
X170602380Y-130609523D01*
X170602380Y-130990476D02*
X170602380Y-131609523D01*
X170983333Y-131276190D01*
X170983333Y-131419047D01*
X171030952Y-131514285D01*
X171078571Y-131561904D01*
X171173809Y-131609523D01*
X171411904Y-131609523D01*
X171507142Y-131561904D01*
X171554761Y-131514285D01*
X171602380Y-131419047D01*
X171602380Y-131133333D01*
X171554761Y-131038095D01*
X171507142Y-130990476D01*
X132582380Y-123958095D02*
X133391904Y-123958095D01*
X133487142Y-124005714D01*
X133534761Y-124053333D01*
X133582380Y-124148571D01*
X133582380Y-124339047D01*
X133534761Y-124434285D01*
X133487142Y-124481904D01*
X133391904Y-124529523D01*
X132582380Y-124529523D01*
X133582380Y-125529523D02*
X133582380Y-124958095D01*
X133582380Y-125243809D02*
X132582380Y-125243809D01*
X132725238Y-125148571D01*
X132820476Y-125053333D01*
X132868095Y-124958095D01*
X126797619Y-130883333D02*
X126083333Y-130883333D01*
X125940476Y-130930952D01*
X125845238Y-131026190D01*
X125797619Y-131169047D01*
X125797619Y-131264285D01*
X125797619Y-129883333D02*
X125797619Y-130454761D01*
X125797619Y-130169047D02*
X126797619Y-130169047D01*
X126654761Y-130264285D01*
X126559523Y-130359523D01*
X126511904Y-130454761D01*
X170666666Y-122957142D02*
X170714285Y-123004761D01*
X170857142Y-123052380D01*
X170952380Y-123052380D01*
X171095238Y-123004761D01*
X171190476Y-122909523D01*
X171238095Y-122814285D01*
X171285714Y-122623809D01*
X171285714Y-122480952D01*
X171238095Y-122290476D01*
X171190476Y-122195238D01*
X171095238Y-122100000D01*
X170952380Y-122052380D01*
X170857142Y-122052380D01*
X170714285Y-122100000D01*
X170666666Y-122147619D01*
X169904761Y-122528571D02*
X169761904Y-122576190D01*
X169714285Y-122623809D01*
X169666666Y-122719047D01*
X169666666Y-122861904D01*
X169714285Y-122957142D01*
X169761904Y-123004761D01*
X169857142Y-123052380D01*
X170238095Y-123052380D01*
X170238095Y-122052380D01*
X169904761Y-122052380D01*
X169809523Y-122100000D01*
X169761904Y-122147619D01*
X169714285Y-122242857D01*
X169714285Y-122338095D01*
X169761904Y-122433333D01*
X169809523Y-122480952D01*
X169904761Y-122528571D01*
X170238095Y-122528571D01*
X168714285Y-123052380D02*
X169285714Y-123052380D01*
X169000000Y-123052380D02*
X169000000Y-122052380D01*
X169095238Y-122195238D01*
X169190476Y-122290476D01*
X169285714Y-122338095D01*
M02*
