G04 #@! TF.GenerationSoftware,KiCad,Pcbnew,5.1.6*
G04 #@! TF.CreationDate,2020-08-29T17:23:06+02:00*
G04 #@! TF.ProjectId,ESP32_lamp,45535033-325f-46c6-916d-702e6b696361,rev?*
G04 #@! TF.SameCoordinates,Original*
G04 #@! TF.FileFunction,Soldermask,Bot*
G04 #@! TF.FilePolarity,Negative*
%FSLAX46Y46*%
G04 Gerber Fmt 4.6, Leading zero omitted, Abs format (unit mm)*
G04 Created by KiCad (PCBNEW 5.1.6) date 2020-08-29 17:23:06*
%MOMM*%
%LPD*%
G01*
G04 APERTURE LIST*
%ADD10C,0.100000*%
G04 APERTURE END LIST*
D10*
G36*
X185375256Y-138391298D02*
G01*
X185481579Y-138412447D01*
X185782042Y-138536903D01*
X186052451Y-138717585D01*
X186282415Y-138947549D01*
X186463097Y-139217958D01*
X186587553Y-139518421D01*
X186651000Y-139837391D01*
X186651000Y-140162609D01*
X186587553Y-140481579D01*
X186463097Y-140782042D01*
X186282415Y-141052451D01*
X186052451Y-141282415D01*
X185782042Y-141463097D01*
X185481579Y-141587553D01*
X185375256Y-141608702D01*
X185162611Y-141651000D01*
X184837389Y-141651000D01*
X184624744Y-141608702D01*
X184518421Y-141587553D01*
X184217958Y-141463097D01*
X183947549Y-141282415D01*
X183717585Y-141052451D01*
X183536903Y-140782042D01*
X183412447Y-140481579D01*
X183349000Y-140162609D01*
X183349000Y-139837391D01*
X183412447Y-139518421D01*
X183536903Y-139217958D01*
X183717585Y-138947549D01*
X183947549Y-138717585D01*
X184217958Y-138536903D01*
X184518421Y-138412447D01*
X184624744Y-138391298D01*
X184837389Y-138349000D01*
X185162611Y-138349000D01*
X185375256Y-138391298D01*
G37*
G36*
X125375256Y-138391298D02*
G01*
X125481579Y-138412447D01*
X125782042Y-138536903D01*
X126052451Y-138717585D01*
X126282415Y-138947549D01*
X126463097Y-139217958D01*
X126587553Y-139518421D01*
X126651000Y-139837391D01*
X126651000Y-140162609D01*
X126587553Y-140481579D01*
X126463097Y-140782042D01*
X126282415Y-141052451D01*
X126052451Y-141282415D01*
X125782042Y-141463097D01*
X125481579Y-141587553D01*
X125375256Y-141608702D01*
X125162611Y-141651000D01*
X124837389Y-141651000D01*
X124624744Y-141608702D01*
X124518421Y-141587553D01*
X124217958Y-141463097D01*
X123947549Y-141282415D01*
X123717585Y-141052451D01*
X123536903Y-140782042D01*
X123412447Y-140481579D01*
X123349000Y-140162609D01*
X123349000Y-139837391D01*
X123412447Y-139518421D01*
X123536903Y-139217958D01*
X123717585Y-138947549D01*
X123947549Y-138717585D01*
X124217958Y-138536903D01*
X124518421Y-138412447D01*
X124624744Y-138391298D01*
X124837389Y-138349000D01*
X125162611Y-138349000D01*
X125375256Y-138391298D01*
G37*
G36*
X145018604Y-137978347D02*
G01*
X145055144Y-137989432D01*
X145088821Y-138007433D01*
X145118341Y-138031659D01*
X145142567Y-138061179D01*
X145160568Y-138094856D01*
X145171653Y-138131396D01*
X145176000Y-138175538D01*
X145176000Y-139124462D01*
X145171653Y-139168604D01*
X145160568Y-139205144D01*
X145142567Y-139238821D01*
X145118341Y-139268341D01*
X145088821Y-139292567D01*
X145055144Y-139310568D01*
X145018604Y-139321653D01*
X144974462Y-139326000D01*
X143525538Y-139326000D01*
X143481396Y-139321653D01*
X143444856Y-139310568D01*
X143411179Y-139292567D01*
X143381659Y-139268341D01*
X143357433Y-139238821D01*
X143339432Y-139205144D01*
X143328347Y-139168604D01*
X143324000Y-139124462D01*
X143324000Y-138175538D01*
X143328347Y-138131396D01*
X143339432Y-138094856D01*
X143357433Y-138061179D01*
X143381659Y-138031659D01*
X143411179Y-138007433D01*
X143444856Y-137989432D01*
X143481396Y-137978347D01*
X143525538Y-137974000D01*
X144974462Y-137974000D01*
X145018604Y-137978347D01*
G37*
G36*
X147518604Y-137978347D02*
G01*
X147555144Y-137989432D01*
X147588821Y-138007433D01*
X147618341Y-138031659D01*
X147642567Y-138061179D01*
X147660568Y-138094856D01*
X147671653Y-138131396D01*
X147676000Y-138175538D01*
X147676000Y-139124462D01*
X147671653Y-139168604D01*
X147660568Y-139205144D01*
X147642567Y-139238821D01*
X147618341Y-139268341D01*
X147588821Y-139292567D01*
X147555144Y-139310568D01*
X147518604Y-139321653D01*
X147474462Y-139326000D01*
X146025538Y-139326000D01*
X145981396Y-139321653D01*
X145944856Y-139310568D01*
X145911179Y-139292567D01*
X145881659Y-139268341D01*
X145857433Y-139238821D01*
X145839432Y-139205144D01*
X145828347Y-139168604D01*
X145824000Y-139124462D01*
X145824000Y-138175538D01*
X145828347Y-138131396D01*
X145839432Y-138094856D01*
X145857433Y-138061179D01*
X145881659Y-138031659D01*
X145911179Y-138007433D01*
X145944856Y-137989432D01*
X145981396Y-137978347D01*
X146025538Y-137974000D01*
X147474462Y-137974000D01*
X147518604Y-137978347D01*
G37*
G36*
X167551000Y-137756000D02*
G01*
X165449000Y-137756000D01*
X165449000Y-136754000D01*
X167551000Y-136754000D01*
X167551000Y-137756000D01*
G37*
G36*
X150551000Y-137756000D02*
G01*
X148449000Y-137756000D01*
X148449000Y-136754000D01*
X150551000Y-136754000D01*
X150551000Y-137756000D01*
G37*
G36*
X147518604Y-135178347D02*
G01*
X147555144Y-135189432D01*
X147588821Y-135207433D01*
X147618341Y-135231659D01*
X147642567Y-135261179D01*
X147660568Y-135294856D01*
X147671653Y-135331396D01*
X147676000Y-135375538D01*
X147676000Y-136324462D01*
X147671653Y-136368604D01*
X147660568Y-136405144D01*
X147642567Y-136438821D01*
X147618341Y-136468341D01*
X147588821Y-136492567D01*
X147555144Y-136510568D01*
X147518604Y-136521653D01*
X147474462Y-136526000D01*
X146025538Y-136526000D01*
X145981396Y-136521653D01*
X145944856Y-136510568D01*
X145911179Y-136492567D01*
X145881659Y-136468341D01*
X145857433Y-136438821D01*
X145839432Y-136405144D01*
X145828347Y-136368604D01*
X145824000Y-136324462D01*
X145824000Y-135375538D01*
X145828347Y-135331396D01*
X145839432Y-135294856D01*
X145857433Y-135261179D01*
X145881659Y-135231659D01*
X145911179Y-135207433D01*
X145944856Y-135189432D01*
X145981396Y-135178347D01*
X146025538Y-135174000D01*
X147474462Y-135174000D01*
X147518604Y-135178347D01*
G37*
G36*
X145018604Y-135178347D02*
G01*
X145055144Y-135189432D01*
X145088821Y-135207433D01*
X145118341Y-135231659D01*
X145142567Y-135261179D01*
X145160568Y-135294856D01*
X145171653Y-135331396D01*
X145176000Y-135375538D01*
X145176000Y-136324462D01*
X145171653Y-136368604D01*
X145160568Y-136405144D01*
X145142567Y-136438821D01*
X145118341Y-136468341D01*
X145088821Y-136492567D01*
X145055144Y-136510568D01*
X145018604Y-136521653D01*
X144974462Y-136526000D01*
X143525538Y-136526000D01*
X143481396Y-136521653D01*
X143444856Y-136510568D01*
X143411179Y-136492567D01*
X143381659Y-136468341D01*
X143357433Y-136438821D01*
X143339432Y-136405144D01*
X143328347Y-136368604D01*
X143324000Y-136324462D01*
X143324000Y-135375538D01*
X143328347Y-135331396D01*
X143339432Y-135294856D01*
X143357433Y-135261179D01*
X143381659Y-135231659D01*
X143411179Y-135207433D01*
X143444856Y-135189432D01*
X143481396Y-135178347D01*
X143525538Y-135174000D01*
X144974462Y-135174000D01*
X145018604Y-135178347D01*
G37*
G36*
X167551000Y-136486000D02*
G01*
X165449000Y-136486000D01*
X165449000Y-135484000D01*
X167551000Y-135484000D01*
X167551000Y-136486000D01*
G37*
G36*
X150551000Y-136486000D02*
G01*
X148449000Y-136486000D01*
X148449000Y-135484000D01*
X150551000Y-135484000D01*
X150551000Y-136486000D01*
G37*
G36*
X137918604Y-133578347D02*
G01*
X137955144Y-133589432D01*
X137988821Y-133607433D01*
X138018341Y-133631659D01*
X138042567Y-133661179D01*
X138060568Y-133694856D01*
X138071653Y-133731396D01*
X138076000Y-133775538D01*
X138076000Y-135224462D01*
X138071653Y-135268604D01*
X138060568Y-135305144D01*
X138042567Y-135338821D01*
X138018341Y-135368341D01*
X137988821Y-135392567D01*
X137955144Y-135410568D01*
X137918604Y-135421653D01*
X137874462Y-135426000D01*
X136925538Y-135426000D01*
X136881396Y-135421653D01*
X136844856Y-135410568D01*
X136811179Y-135392567D01*
X136781659Y-135368341D01*
X136757433Y-135338821D01*
X136739432Y-135305144D01*
X136728347Y-135268604D01*
X136724000Y-135224462D01*
X136724000Y-133775538D01*
X136728347Y-133731396D01*
X136739432Y-133694856D01*
X136757433Y-133661179D01*
X136781659Y-133631659D01*
X136811179Y-133607433D01*
X136844856Y-133589432D01*
X136881396Y-133578347D01*
X136925538Y-133574000D01*
X137874462Y-133574000D01*
X137918604Y-133578347D01*
G37*
G36*
X135118604Y-133578347D02*
G01*
X135155144Y-133589432D01*
X135188821Y-133607433D01*
X135218341Y-133631659D01*
X135242567Y-133661179D01*
X135260568Y-133694856D01*
X135271653Y-133731396D01*
X135276000Y-133775538D01*
X135276000Y-135224462D01*
X135271653Y-135268604D01*
X135260568Y-135305144D01*
X135242567Y-135338821D01*
X135218341Y-135368341D01*
X135188821Y-135392567D01*
X135155144Y-135410568D01*
X135118604Y-135421653D01*
X135074462Y-135426000D01*
X134125538Y-135426000D01*
X134081396Y-135421653D01*
X134044856Y-135410568D01*
X134011179Y-135392567D01*
X133981659Y-135368341D01*
X133957433Y-135338821D01*
X133939432Y-135305144D01*
X133928347Y-135268604D01*
X133924000Y-135224462D01*
X133924000Y-133775538D01*
X133928347Y-133731396D01*
X133939432Y-133694856D01*
X133957433Y-133661179D01*
X133981659Y-133631659D01*
X134011179Y-133607433D01*
X134044856Y-133589432D01*
X134081396Y-133578347D01*
X134125538Y-133574000D01*
X135074462Y-133574000D01*
X135118604Y-133578347D01*
G37*
G36*
X122451000Y-134691799D02*
G01*
X122451601Y-134704039D01*
X122453666Y-134725000D01*
X122451601Y-134745961D01*
X122451000Y-134758201D01*
X122451000Y-134829232D01*
X122449095Y-134831553D01*
X122433412Y-134864713D01*
X122411521Y-134936879D01*
X122393699Y-134970221D01*
X122360357Y-135032600D01*
X122291501Y-135116501D01*
X122207600Y-135185357D01*
X122143590Y-135219571D01*
X122111879Y-135236521D01*
X122008015Y-135268027D01*
X121927067Y-135276000D01*
X120972933Y-135276000D01*
X120891985Y-135268027D01*
X120788121Y-135236521D01*
X120756410Y-135219571D01*
X120692400Y-135185357D01*
X120608499Y-135116501D01*
X120539643Y-135032600D01*
X120506301Y-134970221D01*
X120488479Y-134936879D01*
X120466588Y-134864713D01*
X120457211Y-134842075D01*
X120449000Y-134829786D01*
X120449000Y-134758201D01*
X120448399Y-134745961D01*
X120446334Y-134725000D01*
X120448399Y-134704039D01*
X120449000Y-134691799D01*
X120449000Y-133799000D01*
X122451000Y-133799000D01*
X122451000Y-134691799D01*
G37*
G36*
X167551000Y-135216000D02*
G01*
X165449000Y-135216000D01*
X165449000Y-134214000D01*
X167551000Y-134214000D01*
X167551000Y-135216000D01*
G37*
G36*
X150551000Y-135216000D02*
G01*
X148449000Y-135216000D01*
X148449000Y-134214000D01*
X150551000Y-134214000D01*
X150551000Y-135216000D01*
G37*
G36*
X147518604Y-133228347D02*
G01*
X147555144Y-133239432D01*
X147588821Y-133257433D01*
X147618341Y-133281659D01*
X147642567Y-133311179D01*
X147660568Y-133344856D01*
X147671653Y-133381396D01*
X147676000Y-133425538D01*
X147676000Y-134374462D01*
X147671653Y-134418604D01*
X147660568Y-134455144D01*
X147642567Y-134488821D01*
X147618341Y-134518341D01*
X147588821Y-134542567D01*
X147555144Y-134560568D01*
X147518604Y-134571653D01*
X147474462Y-134576000D01*
X146025538Y-134576000D01*
X145981396Y-134571653D01*
X145944856Y-134560568D01*
X145911179Y-134542567D01*
X145881659Y-134518341D01*
X145857433Y-134488821D01*
X145839432Y-134455144D01*
X145828347Y-134418604D01*
X145824000Y-134374462D01*
X145824000Y-133425538D01*
X145828347Y-133381396D01*
X145839432Y-133344856D01*
X145857433Y-133311179D01*
X145881659Y-133281659D01*
X145911179Y-133257433D01*
X145944856Y-133239432D01*
X145981396Y-133228347D01*
X146025538Y-133224000D01*
X147474462Y-133224000D01*
X147518604Y-133228347D01*
G37*
G36*
X144918604Y-132578347D02*
G01*
X144955144Y-132589432D01*
X144988821Y-132607433D01*
X145018341Y-132631659D01*
X145042567Y-132661179D01*
X145060568Y-132694856D01*
X145071653Y-132731396D01*
X145076000Y-132775538D01*
X145076000Y-134224462D01*
X145071653Y-134268604D01*
X145060568Y-134305144D01*
X145042567Y-134338821D01*
X145018341Y-134368341D01*
X144988821Y-134392567D01*
X144955144Y-134410568D01*
X144918604Y-134421653D01*
X144874462Y-134426000D01*
X143925538Y-134426000D01*
X143881396Y-134421653D01*
X143844856Y-134410568D01*
X143811179Y-134392567D01*
X143781659Y-134368341D01*
X143757433Y-134338821D01*
X143739432Y-134305144D01*
X143728347Y-134268604D01*
X143724000Y-134224462D01*
X143724000Y-132775538D01*
X143728347Y-132731396D01*
X143739432Y-132694856D01*
X143757433Y-132661179D01*
X143781659Y-132631659D01*
X143811179Y-132607433D01*
X143844856Y-132589432D01*
X143881396Y-132578347D01*
X143925538Y-132574000D01*
X144874462Y-132574000D01*
X144918604Y-132578347D01*
G37*
G36*
X142118604Y-132578347D02*
G01*
X142155144Y-132589432D01*
X142188821Y-132607433D01*
X142218341Y-132631659D01*
X142242567Y-132661179D01*
X142260568Y-132694856D01*
X142271653Y-132731396D01*
X142276000Y-132775538D01*
X142276000Y-134224462D01*
X142271653Y-134268604D01*
X142260568Y-134305144D01*
X142242567Y-134338821D01*
X142218341Y-134368341D01*
X142188821Y-134392567D01*
X142155144Y-134410568D01*
X142118604Y-134421653D01*
X142074462Y-134426000D01*
X141125538Y-134426000D01*
X141081396Y-134421653D01*
X141044856Y-134410568D01*
X141011179Y-134392567D01*
X140981659Y-134368341D01*
X140957433Y-134338821D01*
X140939432Y-134305144D01*
X140928347Y-134268604D01*
X140924000Y-134224462D01*
X140924000Y-132775538D01*
X140928347Y-132731396D01*
X140939432Y-132694856D01*
X140957433Y-132661179D01*
X140981659Y-132631659D01*
X141011179Y-132607433D01*
X141044856Y-132589432D01*
X141081396Y-132578347D01*
X141125538Y-132574000D01*
X142074462Y-132574000D01*
X142118604Y-132578347D01*
G37*
G36*
X150551000Y-133946000D02*
G01*
X148449000Y-133946000D01*
X148449000Y-132944000D01*
X150551000Y-132944000D01*
X150551000Y-133946000D01*
G37*
G36*
X167551000Y-133946000D02*
G01*
X165449000Y-133946000D01*
X165449000Y-132944000D01*
X167551000Y-132944000D01*
X167551000Y-133946000D01*
G37*
G36*
X124662916Y-127757334D02*
G01*
X124771492Y-127790271D01*
X124771495Y-127790272D01*
X124799318Y-127805144D01*
X124871557Y-127843756D01*
X124959264Y-127915736D01*
X125031244Y-128003443D01*
X125065429Y-128067399D01*
X125084728Y-128103505D01*
X125084729Y-128103508D01*
X125117666Y-128212084D01*
X125128787Y-128325000D01*
X125117666Y-128437916D01*
X125085308Y-128544583D01*
X125084728Y-128546495D01*
X125078881Y-128557433D01*
X125031244Y-128646557D01*
X124959264Y-128734264D01*
X124896692Y-128785616D01*
X124879374Y-128802934D01*
X124865760Y-128823308D01*
X124856383Y-128845947D01*
X124851602Y-128869980D01*
X124851000Y-128882233D01*
X124851000Y-132217767D01*
X124853402Y-132242153D01*
X124860515Y-132265602D01*
X124872066Y-132287213D01*
X124887611Y-132306155D01*
X124896682Y-132314376D01*
X124959264Y-132365736D01*
X125031244Y-132453443D01*
X125060981Y-132509078D01*
X125084728Y-132553505D01*
X125084729Y-132553508D01*
X125117666Y-132662084D01*
X125128787Y-132775000D01*
X125117666Y-132887916D01*
X125097065Y-132955826D01*
X125084728Y-132996495D01*
X125073051Y-133018341D01*
X125031244Y-133096557D01*
X124959264Y-133184264D01*
X124871557Y-133256244D01*
X124824008Y-133281659D01*
X124771495Y-133309728D01*
X124771492Y-133309729D01*
X124662916Y-133342666D01*
X124578298Y-133351000D01*
X124321702Y-133351000D01*
X124237084Y-133342666D01*
X124128508Y-133309729D01*
X124128505Y-133309728D01*
X124075992Y-133281659D01*
X124028443Y-133256244D01*
X123940736Y-133184264D01*
X123868756Y-133096557D01*
X123826949Y-133018341D01*
X123815272Y-132996495D01*
X123802935Y-132955826D01*
X123782334Y-132887916D01*
X123771213Y-132775000D01*
X123782334Y-132662084D01*
X123815271Y-132553508D01*
X123815272Y-132553505D01*
X123839019Y-132509078D01*
X123868756Y-132453443D01*
X123940736Y-132365736D01*
X123993275Y-132322618D01*
X124010595Y-132305298D01*
X124024209Y-132284923D01*
X124033586Y-132262285D01*
X124038367Y-132238251D01*
X124038367Y-132213747D01*
X124033587Y-132189714D01*
X124024209Y-132167075D01*
X124010596Y-132146701D01*
X123993269Y-132129374D01*
X123972894Y-132115760D01*
X123950256Y-132106383D01*
X123926222Y-132101602D01*
X123913970Y-132101000D01*
X123399000Y-132101000D01*
X123399000Y-128999000D01*
X123913970Y-128999000D01*
X123938356Y-128996598D01*
X123961805Y-128989485D01*
X123983416Y-128977934D01*
X124002358Y-128962389D01*
X124017903Y-128943447D01*
X124029454Y-128921836D01*
X124036567Y-128898387D01*
X124038969Y-128874001D01*
X124036567Y-128849615D01*
X124029454Y-128826166D01*
X124017903Y-128804555D01*
X124002358Y-128785613D01*
X123993284Y-128777389D01*
X123940736Y-128734264D01*
X123868756Y-128646557D01*
X123821119Y-128557433D01*
X123815272Y-128546495D01*
X123814692Y-128544583D01*
X123782334Y-128437916D01*
X123771213Y-128325000D01*
X123782334Y-128212084D01*
X123815271Y-128103508D01*
X123815272Y-128103505D01*
X123834571Y-128067399D01*
X123868756Y-128003443D01*
X123940736Y-127915736D01*
X124028443Y-127843756D01*
X124100682Y-127805144D01*
X124128505Y-127790272D01*
X124128508Y-127790271D01*
X124237084Y-127757334D01*
X124321702Y-127749000D01*
X124578298Y-127749000D01*
X124662916Y-127757334D01*
G37*
G36*
X128768604Y-131728347D02*
G01*
X128805144Y-131739432D01*
X128838821Y-131757433D01*
X128868341Y-131781659D01*
X128892567Y-131811179D01*
X128910568Y-131844856D01*
X128921653Y-131881396D01*
X128926000Y-131925538D01*
X128926000Y-132874462D01*
X128921653Y-132918604D01*
X128910568Y-132955144D01*
X128892567Y-132988821D01*
X128868341Y-133018341D01*
X128838821Y-133042567D01*
X128805144Y-133060568D01*
X128768604Y-133071653D01*
X128724462Y-133076000D01*
X127275538Y-133076000D01*
X127231396Y-133071653D01*
X127194856Y-133060568D01*
X127161179Y-133042567D01*
X127131659Y-133018341D01*
X127107433Y-132988821D01*
X127089432Y-132955144D01*
X127078347Y-132918604D01*
X127074000Y-132874462D01*
X127074000Y-131925538D01*
X127078347Y-131881396D01*
X127089432Y-131844856D01*
X127107433Y-131811179D01*
X127131659Y-131781659D01*
X127161179Y-131757433D01*
X127194856Y-131739432D01*
X127231396Y-131728347D01*
X127275538Y-131724000D01*
X128724462Y-131724000D01*
X128768604Y-131728347D01*
G37*
G36*
X131318604Y-131728347D02*
G01*
X131355144Y-131739432D01*
X131388821Y-131757433D01*
X131418341Y-131781659D01*
X131442567Y-131811179D01*
X131460568Y-131844856D01*
X131471653Y-131881396D01*
X131476000Y-131925538D01*
X131476000Y-132874462D01*
X131471653Y-132918604D01*
X131460568Y-132955144D01*
X131442567Y-132988821D01*
X131418341Y-133018341D01*
X131388821Y-133042567D01*
X131355144Y-133060568D01*
X131318604Y-133071653D01*
X131274462Y-133076000D01*
X129825538Y-133076000D01*
X129781396Y-133071653D01*
X129744856Y-133060568D01*
X129711179Y-133042567D01*
X129681659Y-133018341D01*
X129657433Y-132988821D01*
X129639432Y-132955144D01*
X129628347Y-132918604D01*
X129624000Y-132874462D01*
X129624000Y-131925538D01*
X129628347Y-131881396D01*
X129639432Y-131844856D01*
X129657433Y-131811179D01*
X129681659Y-131781659D01*
X129711179Y-131757433D01*
X129744856Y-131739432D01*
X129781396Y-131728347D01*
X129825538Y-131724000D01*
X131274462Y-131724000D01*
X131318604Y-131728347D01*
G37*
G36*
X137918604Y-131078347D02*
G01*
X137955144Y-131089432D01*
X137988821Y-131107433D01*
X138018341Y-131131659D01*
X138042567Y-131161179D01*
X138060568Y-131194856D01*
X138071653Y-131231396D01*
X138076000Y-131275538D01*
X138076000Y-132724462D01*
X138071653Y-132768604D01*
X138060568Y-132805144D01*
X138042567Y-132838821D01*
X138018341Y-132868341D01*
X137988821Y-132892567D01*
X137955144Y-132910568D01*
X137918604Y-132921653D01*
X137874462Y-132926000D01*
X136925538Y-132926000D01*
X136881396Y-132921653D01*
X136844856Y-132910568D01*
X136811179Y-132892567D01*
X136781659Y-132868341D01*
X136757433Y-132838821D01*
X136739432Y-132805144D01*
X136728347Y-132768604D01*
X136724000Y-132724462D01*
X136724000Y-131275538D01*
X136728347Y-131231396D01*
X136739432Y-131194856D01*
X136757433Y-131161179D01*
X136781659Y-131131659D01*
X136811179Y-131107433D01*
X136844856Y-131089432D01*
X136881396Y-131078347D01*
X136925538Y-131074000D01*
X137874462Y-131074000D01*
X137918604Y-131078347D01*
G37*
G36*
X135118604Y-131078347D02*
G01*
X135155144Y-131089432D01*
X135188821Y-131107433D01*
X135218341Y-131131659D01*
X135242567Y-131161179D01*
X135260568Y-131194856D01*
X135271653Y-131231396D01*
X135276000Y-131275538D01*
X135276000Y-132724462D01*
X135271653Y-132768604D01*
X135260568Y-132805144D01*
X135242567Y-132838821D01*
X135218341Y-132868341D01*
X135188821Y-132892567D01*
X135155144Y-132910568D01*
X135118604Y-132921653D01*
X135074462Y-132926000D01*
X134125538Y-132926000D01*
X134081396Y-132921653D01*
X134044856Y-132910568D01*
X134011179Y-132892567D01*
X133981659Y-132868341D01*
X133957433Y-132838821D01*
X133939432Y-132805144D01*
X133928347Y-132768604D01*
X133924000Y-132724462D01*
X133924000Y-131275538D01*
X133928347Y-131231396D01*
X133939432Y-131194856D01*
X133957433Y-131161179D01*
X133981659Y-131131659D01*
X134011179Y-131107433D01*
X134044856Y-131089432D01*
X134081396Y-131078347D01*
X134125538Y-131074000D01*
X135074462Y-131074000D01*
X135118604Y-131078347D01*
G37*
G36*
X167551000Y-132676000D02*
G01*
X165449000Y-132676000D01*
X165449000Y-131674000D01*
X167551000Y-131674000D01*
X167551000Y-132676000D01*
G37*
G36*
X179768604Y-131328347D02*
G01*
X179805144Y-131339432D01*
X179838821Y-131357433D01*
X179868341Y-131381659D01*
X179892567Y-131411179D01*
X179910568Y-131444856D01*
X179921653Y-131481396D01*
X179926000Y-131525538D01*
X179926000Y-132474462D01*
X179921653Y-132518604D01*
X179910568Y-132555144D01*
X179892567Y-132588821D01*
X179868341Y-132618341D01*
X179838821Y-132642567D01*
X179805144Y-132660568D01*
X179768604Y-132671653D01*
X179724462Y-132676000D01*
X178275538Y-132676000D01*
X178231396Y-132671653D01*
X178194856Y-132660568D01*
X178161179Y-132642567D01*
X178131659Y-132618341D01*
X178107433Y-132588821D01*
X178089432Y-132555144D01*
X178078347Y-132518604D01*
X178074000Y-132474462D01*
X178074000Y-131525538D01*
X178078347Y-131481396D01*
X178089432Y-131444856D01*
X178107433Y-131411179D01*
X178131659Y-131381659D01*
X178161179Y-131357433D01*
X178194856Y-131339432D01*
X178231396Y-131328347D01*
X178275538Y-131324000D01*
X179724462Y-131324000D01*
X179768604Y-131328347D01*
G37*
G36*
X150551000Y-132676000D02*
G01*
X148449000Y-132676000D01*
X148449000Y-131674000D01*
X150551000Y-131674000D01*
X150551000Y-132676000D01*
G37*
G36*
X172859928Y-129276764D02*
G01*
X172881009Y-129283160D01*
X172900444Y-129293548D01*
X172920703Y-129310173D01*
X172941077Y-129323786D01*
X172963716Y-129333163D01*
X172987750Y-129337943D01*
X173012254Y-129337943D01*
X173036287Y-129333162D01*
X173058926Y-129323784D01*
X173079297Y-129310173D01*
X173099556Y-129293548D01*
X173118991Y-129283160D01*
X173140072Y-129276764D01*
X173168140Y-129274000D01*
X173631860Y-129274000D01*
X173659928Y-129276764D01*
X173681009Y-129283160D01*
X173700444Y-129293548D01*
X173720703Y-129310173D01*
X173741077Y-129323786D01*
X173763716Y-129333163D01*
X173787750Y-129337943D01*
X173812254Y-129337943D01*
X173836287Y-129333162D01*
X173858926Y-129323784D01*
X173879297Y-129310173D01*
X173899556Y-129293548D01*
X173918991Y-129283160D01*
X173940072Y-129276764D01*
X173968140Y-129274000D01*
X174431860Y-129274000D01*
X174459928Y-129276764D01*
X174481009Y-129283160D01*
X174500444Y-129293548D01*
X174520703Y-129310173D01*
X174541077Y-129323786D01*
X174563716Y-129333163D01*
X174587750Y-129337943D01*
X174612254Y-129337943D01*
X174636287Y-129333162D01*
X174658926Y-129323784D01*
X174679297Y-129310173D01*
X174699556Y-129293548D01*
X174718991Y-129283160D01*
X174740072Y-129276764D01*
X174768140Y-129274000D01*
X175231860Y-129274000D01*
X175259928Y-129276764D01*
X175281009Y-129283160D01*
X175300444Y-129293548D01*
X175320703Y-129310173D01*
X175341077Y-129323786D01*
X175363716Y-129333163D01*
X175387750Y-129337943D01*
X175412254Y-129337943D01*
X175436287Y-129333162D01*
X175458926Y-129323784D01*
X175479297Y-129310173D01*
X175499556Y-129293548D01*
X175518991Y-129283160D01*
X175540072Y-129276764D01*
X175568140Y-129274000D01*
X176031860Y-129274000D01*
X176059928Y-129276764D01*
X176081009Y-129283160D01*
X176100444Y-129293548D01*
X176120703Y-129310173D01*
X176141077Y-129323786D01*
X176163716Y-129333163D01*
X176187750Y-129337943D01*
X176212254Y-129337943D01*
X176236287Y-129333162D01*
X176258926Y-129323784D01*
X176279297Y-129310173D01*
X176299556Y-129293548D01*
X176318991Y-129283160D01*
X176340072Y-129276764D01*
X176368140Y-129274000D01*
X176831860Y-129274000D01*
X176859928Y-129276764D01*
X176881009Y-129283160D01*
X176900445Y-129293548D01*
X176917476Y-129307524D01*
X176931452Y-129324555D01*
X176941840Y-129343991D01*
X176948236Y-129365072D01*
X176951000Y-129393140D01*
X176951000Y-130206860D01*
X176948236Y-130234928D01*
X176941840Y-130256011D01*
X176935282Y-130268280D01*
X176925904Y-130290919D01*
X176921124Y-130314952D01*
X176921124Y-130339456D01*
X176925905Y-130363490D01*
X176935282Y-130386129D01*
X176948896Y-130406503D01*
X176966223Y-130423830D01*
X176986597Y-130437443D01*
X177009236Y-130446821D01*
X177033269Y-130451601D01*
X177034928Y-130451764D01*
X177056009Y-130458160D01*
X177075445Y-130468548D01*
X177092476Y-130482524D01*
X177106452Y-130499555D01*
X177116840Y-130518991D01*
X177123236Y-130540072D01*
X177126000Y-130568140D01*
X177126000Y-131031860D01*
X177123236Y-131059928D01*
X177116840Y-131081009D01*
X177106452Y-131100445D01*
X177092476Y-131117476D01*
X177075445Y-131131452D01*
X177056009Y-131141840D01*
X177034928Y-131148236D01*
X177033269Y-131148399D01*
X177009236Y-131153179D01*
X176986597Y-131162557D01*
X176966223Y-131176170D01*
X176948896Y-131193497D01*
X176935282Y-131213872D01*
X176925904Y-131236511D01*
X176921124Y-131260544D01*
X176921124Y-131285048D01*
X176925904Y-131309081D01*
X176935282Y-131331720D01*
X176941840Y-131343989D01*
X176948236Y-131365072D01*
X176951000Y-131393140D01*
X176951000Y-132206860D01*
X176948236Y-132234928D01*
X176941840Y-132256009D01*
X176931452Y-132275445D01*
X176917476Y-132292476D01*
X176900445Y-132306452D01*
X176881009Y-132316840D01*
X176859928Y-132323236D01*
X176831860Y-132326000D01*
X176368140Y-132326000D01*
X176340072Y-132323236D01*
X176318991Y-132316840D01*
X176299556Y-132306452D01*
X176279297Y-132289827D01*
X176258923Y-132276214D01*
X176236284Y-132266837D01*
X176212250Y-132262057D01*
X176187746Y-132262057D01*
X176163713Y-132266838D01*
X176141074Y-132276216D01*
X176120703Y-132289827D01*
X176100444Y-132306452D01*
X176081009Y-132316840D01*
X176059928Y-132323236D01*
X176031860Y-132326000D01*
X175568140Y-132326000D01*
X175540072Y-132323236D01*
X175518991Y-132316840D01*
X175499556Y-132306452D01*
X175479297Y-132289827D01*
X175458923Y-132276214D01*
X175436284Y-132266837D01*
X175412250Y-132262057D01*
X175387746Y-132262057D01*
X175363713Y-132266838D01*
X175341074Y-132276216D01*
X175320703Y-132289827D01*
X175300444Y-132306452D01*
X175281009Y-132316840D01*
X175259928Y-132323236D01*
X175231860Y-132326000D01*
X174768140Y-132326000D01*
X174740072Y-132323236D01*
X174718991Y-132316840D01*
X174699556Y-132306452D01*
X174679297Y-132289827D01*
X174658923Y-132276214D01*
X174636284Y-132266837D01*
X174612250Y-132262057D01*
X174587746Y-132262057D01*
X174563713Y-132266838D01*
X174541074Y-132276216D01*
X174520703Y-132289827D01*
X174500444Y-132306452D01*
X174481009Y-132316840D01*
X174459928Y-132323236D01*
X174431860Y-132326000D01*
X173968140Y-132326000D01*
X173940072Y-132323236D01*
X173918991Y-132316840D01*
X173899556Y-132306452D01*
X173879297Y-132289827D01*
X173858923Y-132276214D01*
X173836284Y-132266837D01*
X173812250Y-132262057D01*
X173787746Y-132262057D01*
X173763713Y-132266838D01*
X173741074Y-132276216D01*
X173720703Y-132289827D01*
X173700444Y-132306452D01*
X173681009Y-132316840D01*
X173659928Y-132323236D01*
X173631860Y-132326000D01*
X173168140Y-132326000D01*
X173140072Y-132323236D01*
X173118991Y-132316840D01*
X173099556Y-132306452D01*
X173079297Y-132289827D01*
X173058923Y-132276214D01*
X173036284Y-132266837D01*
X173012250Y-132262057D01*
X172987746Y-132262057D01*
X172963713Y-132266838D01*
X172941074Y-132276216D01*
X172920703Y-132289827D01*
X172900444Y-132306452D01*
X172881009Y-132316840D01*
X172859928Y-132323236D01*
X172831860Y-132326000D01*
X172368140Y-132326000D01*
X172340072Y-132323236D01*
X172318991Y-132316840D01*
X172299555Y-132306452D01*
X172282524Y-132292476D01*
X172268548Y-132275445D01*
X172258160Y-132256009D01*
X172251764Y-132234928D01*
X172249000Y-132206860D01*
X172249000Y-131393140D01*
X172251764Y-131365072D01*
X172258160Y-131343989D01*
X172264718Y-131331720D01*
X172274096Y-131309081D01*
X172278876Y-131285048D01*
X172278876Y-131260544D01*
X172274095Y-131236510D01*
X172264718Y-131213871D01*
X172251104Y-131193497D01*
X172233777Y-131176170D01*
X172213403Y-131162557D01*
X172190764Y-131153179D01*
X172166731Y-131148399D01*
X172165072Y-131148236D01*
X172143991Y-131141840D01*
X172124555Y-131131452D01*
X172107524Y-131117476D01*
X172093548Y-131100445D01*
X172083160Y-131081009D01*
X172076764Y-131059928D01*
X172074000Y-131031860D01*
X172074000Y-130568140D01*
X172076764Y-130540072D01*
X172083160Y-130518991D01*
X172093548Y-130499555D01*
X172107524Y-130482524D01*
X172124555Y-130468548D01*
X172143991Y-130458160D01*
X172165072Y-130451764D01*
X172166731Y-130451601D01*
X172169757Y-130450999D01*
X173097234Y-130450999D01*
X173099636Y-130475385D01*
X173111994Y-130509923D01*
X173116840Y-130518989D01*
X173123236Y-130540072D01*
X173126000Y-130568140D01*
X173126000Y-131031860D01*
X173123236Y-131059928D01*
X173116840Y-131081011D01*
X173111994Y-131090077D01*
X173102616Y-131112716D01*
X173097836Y-131136749D01*
X173097836Y-131161253D01*
X173102617Y-131185287D01*
X173111994Y-131207925D01*
X173125608Y-131228300D01*
X173142935Y-131245627D01*
X173163309Y-131259240D01*
X173185948Y-131268618D01*
X173222233Y-131274000D01*
X173631860Y-131274000D01*
X173659928Y-131276764D01*
X173681009Y-131283160D01*
X173700444Y-131293548D01*
X173720703Y-131310173D01*
X173741077Y-131323786D01*
X173763716Y-131333163D01*
X173787750Y-131337943D01*
X173812254Y-131337943D01*
X173836287Y-131333162D01*
X173858926Y-131323784D01*
X173879297Y-131310173D01*
X173899556Y-131293548D01*
X173918991Y-131283160D01*
X173940072Y-131276764D01*
X173968140Y-131274000D01*
X174431860Y-131274000D01*
X174459928Y-131276764D01*
X174481009Y-131283160D01*
X174500444Y-131293548D01*
X174520703Y-131310173D01*
X174541077Y-131323786D01*
X174563716Y-131333163D01*
X174587750Y-131337943D01*
X174612254Y-131337943D01*
X174636287Y-131333162D01*
X174658926Y-131323784D01*
X174679297Y-131310173D01*
X174699556Y-131293548D01*
X174718991Y-131283160D01*
X174740072Y-131276764D01*
X174768140Y-131274000D01*
X175231860Y-131274000D01*
X175259928Y-131276764D01*
X175281009Y-131283160D01*
X175300444Y-131293548D01*
X175320703Y-131310173D01*
X175341077Y-131323786D01*
X175363716Y-131333163D01*
X175387750Y-131337943D01*
X175412254Y-131337943D01*
X175436287Y-131333162D01*
X175458926Y-131323784D01*
X175479297Y-131310173D01*
X175499556Y-131293548D01*
X175518991Y-131283160D01*
X175540072Y-131276764D01*
X175568140Y-131274000D01*
X175977767Y-131274000D01*
X176002153Y-131271598D01*
X176025602Y-131264485D01*
X176047213Y-131252934D01*
X176066155Y-131237389D01*
X176081700Y-131218447D01*
X176093251Y-131196836D01*
X176100364Y-131173387D01*
X176102766Y-131149001D01*
X176100364Y-131124615D01*
X176088006Y-131090077D01*
X176083160Y-131081011D01*
X176076764Y-131059928D01*
X176074000Y-131031860D01*
X176074000Y-130568140D01*
X176076764Y-130540072D01*
X176083160Y-130518989D01*
X176088006Y-130509923D01*
X176097384Y-130487284D01*
X176102164Y-130463251D01*
X176102164Y-130438747D01*
X176097383Y-130414713D01*
X176088006Y-130392075D01*
X176074392Y-130371700D01*
X176057065Y-130354373D01*
X176036691Y-130340760D01*
X176014052Y-130331382D01*
X175977767Y-130326000D01*
X175568140Y-130326000D01*
X175540072Y-130323236D01*
X175518991Y-130316840D01*
X175499556Y-130306452D01*
X175479297Y-130289827D01*
X175458923Y-130276214D01*
X175436284Y-130266837D01*
X175412250Y-130262057D01*
X175387746Y-130262057D01*
X175363713Y-130266838D01*
X175341074Y-130276216D01*
X175320703Y-130289827D01*
X175300444Y-130306452D01*
X175281009Y-130316840D01*
X175259928Y-130323236D01*
X175231860Y-130326000D01*
X174768140Y-130326000D01*
X174740072Y-130323236D01*
X174718991Y-130316840D01*
X174699556Y-130306452D01*
X174679297Y-130289827D01*
X174658923Y-130276214D01*
X174636284Y-130266837D01*
X174612250Y-130262057D01*
X174587746Y-130262057D01*
X174563713Y-130266838D01*
X174541074Y-130276216D01*
X174520703Y-130289827D01*
X174500444Y-130306452D01*
X174481009Y-130316840D01*
X174459928Y-130323236D01*
X174431860Y-130326000D01*
X173968140Y-130326000D01*
X173940072Y-130323236D01*
X173918991Y-130316840D01*
X173899556Y-130306452D01*
X173879297Y-130289827D01*
X173858923Y-130276214D01*
X173836284Y-130266837D01*
X173812250Y-130262057D01*
X173787746Y-130262057D01*
X173763713Y-130266838D01*
X173741074Y-130276216D01*
X173720703Y-130289827D01*
X173700444Y-130306452D01*
X173681009Y-130316840D01*
X173659928Y-130323236D01*
X173631860Y-130326000D01*
X173222233Y-130326000D01*
X173197847Y-130328402D01*
X173174398Y-130335515D01*
X173152787Y-130347066D01*
X173133845Y-130362611D01*
X173118300Y-130381553D01*
X173106749Y-130403164D01*
X173099636Y-130426613D01*
X173097234Y-130450999D01*
X172169757Y-130450999D01*
X172190764Y-130446821D01*
X172213403Y-130437443D01*
X172233777Y-130423830D01*
X172251104Y-130406503D01*
X172264718Y-130386128D01*
X172274096Y-130363489D01*
X172278876Y-130339456D01*
X172278876Y-130314952D01*
X172274096Y-130290919D01*
X172264718Y-130268280D01*
X172258160Y-130256011D01*
X172251764Y-130234928D01*
X172249000Y-130206860D01*
X172249000Y-129393140D01*
X172251764Y-129365072D01*
X172258160Y-129343991D01*
X172268548Y-129324555D01*
X172282524Y-129307524D01*
X172299555Y-129293548D01*
X172318991Y-129283160D01*
X172340072Y-129276764D01*
X172368140Y-129274000D01*
X172831860Y-129274000D01*
X172859928Y-129276764D01*
G37*
G36*
X159551000Y-132306000D02*
G01*
X154449000Y-132306000D01*
X154449000Y-127204000D01*
X159551000Y-127204000D01*
X159551000Y-132306000D01*
G37*
G36*
X122451000Y-132051000D02*
G01*
X120449000Y-132051000D01*
X120449000Y-129049000D01*
X122451000Y-129049000D01*
X122451000Y-132051000D01*
G37*
G36*
X147518604Y-130428347D02*
G01*
X147555144Y-130439432D01*
X147588821Y-130457433D01*
X147618341Y-130481659D01*
X147642567Y-130511179D01*
X147660568Y-130544856D01*
X147671653Y-130581396D01*
X147676000Y-130625538D01*
X147676000Y-131574462D01*
X147671653Y-131618604D01*
X147660568Y-131655144D01*
X147642567Y-131688821D01*
X147618341Y-131718341D01*
X147588821Y-131742567D01*
X147555144Y-131760568D01*
X147518604Y-131771653D01*
X147474462Y-131776000D01*
X146025538Y-131776000D01*
X145981396Y-131771653D01*
X145944856Y-131760568D01*
X145911179Y-131742567D01*
X145881659Y-131718341D01*
X145857433Y-131688821D01*
X145839432Y-131655144D01*
X145828347Y-131618604D01*
X145824000Y-131574462D01*
X145824000Y-130625538D01*
X145828347Y-130581396D01*
X145839432Y-130544856D01*
X145857433Y-130511179D01*
X145881659Y-130481659D01*
X145911179Y-130457433D01*
X145944856Y-130439432D01*
X145981396Y-130428347D01*
X146025538Y-130424000D01*
X147474462Y-130424000D01*
X147518604Y-130428347D01*
G37*
G36*
X150551000Y-131406000D02*
G01*
X148449000Y-131406000D01*
X148449000Y-130404000D01*
X150551000Y-130404000D01*
X150551000Y-131406000D01*
G37*
G36*
X167551000Y-131406000D02*
G01*
X165449000Y-131406000D01*
X165449000Y-130404000D01*
X167551000Y-130404000D01*
X167551000Y-131406000D01*
G37*
G36*
X185251000Y-130691000D02*
G01*
X182639000Y-130691000D01*
X182639000Y-129589000D01*
X185251000Y-129589000D01*
X185251000Y-130691000D01*
G37*
G36*
X135118604Y-128578347D02*
G01*
X135155144Y-128589432D01*
X135188821Y-128607433D01*
X135218341Y-128631659D01*
X135242567Y-128661179D01*
X135260568Y-128694856D01*
X135271653Y-128731396D01*
X135276000Y-128775538D01*
X135276000Y-130224462D01*
X135271653Y-130268604D01*
X135260568Y-130305144D01*
X135242567Y-130338821D01*
X135218341Y-130368341D01*
X135188821Y-130392567D01*
X135155144Y-130410568D01*
X135118604Y-130421653D01*
X135074462Y-130426000D01*
X134125538Y-130426000D01*
X134081396Y-130421653D01*
X134044856Y-130410568D01*
X134011179Y-130392567D01*
X133981659Y-130368341D01*
X133957433Y-130338821D01*
X133939432Y-130305144D01*
X133928347Y-130268604D01*
X133924000Y-130224462D01*
X133924000Y-128775538D01*
X133928347Y-128731396D01*
X133939432Y-128694856D01*
X133957433Y-128661179D01*
X133981659Y-128631659D01*
X134011179Y-128607433D01*
X134044856Y-128589432D01*
X134081396Y-128578347D01*
X134125538Y-128574000D01*
X135074462Y-128574000D01*
X135118604Y-128578347D01*
G37*
G36*
X137918604Y-128578347D02*
G01*
X137955144Y-128589432D01*
X137988821Y-128607433D01*
X138018341Y-128631659D01*
X138042567Y-128661179D01*
X138060568Y-128694856D01*
X138071653Y-128731396D01*
X138076000Y-128775538D01*
X138076000Y-130224462D01*
X138071653Y-130268604D01*
X138060568Y-130305144D01*
X138042567Y-130338821D01*
X138018341Y-130368341D01*
X137988821Y-130392567D01*
X137955144Y-130410568D01*
X137918604Y-130421653D01*
X137874462Y-130426000D01*
X136925538Y-130426000D01*
X136881396Y-130421653D01*
X136844856Y-130410568D01*
X136811179Y-130392567D01*
X136781659Y-130368341D01*
X136757433Y-130338821D01*
X136739432Y-130305144D01*
X136728347Y-130268604D01*
X136724000Y-130224462D01*
X136724000Y-128775538D01*
X136728347Y-128731396D01*
X136739432Y-128694856D01*
X136757433Y-128661179D01*
X136781659Y-128631659D01*
X136811179Y-128607433D01*
X136844856Y-128589432D01*
X136881396Y-128578347D01*
X136925538Y-128574000D01*
X137874462Y-128574000D01*
X137918604Y-128578347D01*
G37*
G36*
X131318604Y-128928347D02*
G01*
X131355144Y-128939432D01*
X131388821Y-128957433D01*
X131418341Y-128981659D01*
X131442567Y-129011179D01*
X131460568Y-129044856D01*
X131471653Y-129081396D01*
X131476000Y-129125538D01*
X131476000Y-130074462D01*
X131471653Y-130118604D01*
X131460568Y-130155144D01*
X131442567Y-130188821D01*
X131418341Y-130218341D01*
X131388821Y-130242567D01*
X131355144Y-130260568D01*
X131318604Y-130271653D01*
X131274462Y-130276000D01*
X129825538Y-130276000D01*
X129781396Y-130271653D01*
X129744856Y-130260568D01*
X129711179Y-130242567D01*
X129681659Y-130218341D01*
X129657433Y-130188821D01*
X129639432Y-130155144D01*
X129628347Y-130118604D01*
X129624000Y-130074462D01*
X129624000Y-129125538D01*
X129628347Y-129081396D01*
X129639432Y-129044856D01*
X129657433Y-129011179D01*
X129681659Y-128981659D01*
X129711179Y-128957433D01*
X129744856Y-128939432D01*
X129781396Y-128928347D01*
X129825538Y-128924000D01*
X131274462Y-128924000D01*
X131318604Y-128928347D01*
G37*
G36*
X128768604Y-128928347D02*
G01*
X128805144Y-128939432D01*
X128838821Y-128957433D01*
X128868341Y-128981659D01*
X128892567Y-129011179D01*
X128910568Y-129044856D01*
X128921653Y-129081396D01*
X128926000Y-129125538D01*
X128926000Y-130074462D01*
X128921653Y-130118604D01*
X128910568Y-130155144D01*
X128892567Y-130188821D01*
X128868341Y-130218341D01*
X128838821Y-130242567D01*
X128805144Y-130260568D01*
X128768604Y-130271653D01*
X128724462Y-130276000D01*
X127275538Y-130276000D01*
X127231396Y-130271653D01*
X127194856Y-130260568D01*
X127161179Y-130242567D01*
X127131659Y-130218341D01*
X127107433Y-130188821D01*
X127089432Y-130155144D01*
X127078347Y-130118604D01*
X127074000Y-130074462D01*
X127074000Y-129125538D01*
X127078347Y-129081396D01*
X127089432Y-129044856D01*
X127107433Y-129011179D01*
X127131659Y-128981659D01*
X127161179Y-128957433D01*
X127194856Y-128939432D01*
X127231396Y-128928347D01*
X127275538Y-128924000D01*
X128724462Y-128924000D01*
X128768604Y-128928347D01*
G37*
G36*
X167551000Y-130136000D02*
G01*
X165449000Y-130136000D01*
X165449000Y-129134000D01*
X167551000Y-129134000D01*
X167551000Y-130136000D01*
G37*
G36*
X150551000Y-130136000D02*
G01*
X148449000Y-130136000D01*
X148449000Y-129134000D01*
X150551000Y-129134000D01*
X150551000Y-130136000D01*
G37*
G36*
X179768604Y-128528347D02*
G01*
X179805144Y-128539432D01*
X179838821Y-128557433D01*
X179868341Y-128581659D01*
X179892567Y-128611179D01*
X179910568Y-128644856D01*
X179921653Y-128681396D01*
X179926000Y-128725538D01*
X179926000Y-129674462D01*
X179921653Y-129718604D01*
X179910568Y-129755144D01*
X179892567Y-129788821D01*
X179868341Y-129818341D01*
X179838821Y-129842567D01*
X179805144Y-129860568D01*
X179768604Y-129871653D01*
X179724462Y-129876000D01*
X178275538Y-129876000D01*
X178231396Y-129871653D01*
X178194856Y-129860568D01*
X178161179Y-129842567D01*
X178131659Y-129818341D01*
X178107433Y-129788821D01*
X178089432Y-129755144D01*
X178078347Y-129718604D01*
X178074000Y-129674462D01*
X178074000Y-128725538D01*
X178078347Y-128681396D01*
X178089432Y-128644856D01*
X178107433Y-128611179D01*
X178131659Y-128581659D01*
X178161179Y-128557433D01*
X178194856Y-128539432D01*
X178231396Y-128528347D01*
X178275538Y-128524000D01*
X179724462Y-128524000D01*
X179768604Y-128528347D01*
G37*
G36*
X150551000Y-128866000D02*
G01*
X148449000Y-128866000D01*
X148449000Y-127864000D01*
X150551000Y-127864000D01*
X150551000Y-128866000D01*
G37*
G36*
X167551000Y-128866000D02*
G01*
X165449000Y-128866000D01*
X165449000Y-127864000D01*
X167551000Y-127864000D01*
X167551000Y-128866000D01*
G37*
G36*
X129346000Y-128246000D02*
G01*
X128644000Y-128246000D01*
X128644000Y-126594000D01*
X129346000Y-126594000D01*
X129346000Y-128246000D01*
G37*
G36*
X128076000Y-128246000D02*
G01*
X127374000Y-128246000D01*
X127374000Y-126594000D01*
X128076000Y-126594000D01*
X128076000Y-128246000D01*
G37*
G36*
X131886000Y-128246000D02*
G01*
X131184000Y-128246000D01*
X131184000Y-126594000D01*
X131886000Y-126594000D01*
X131886000Y-128246000D01*
G37*
G36*
X130616000Y-128246000D02*
G01*
X129914000Y-128246000D01*
X129914000Y-126594000D01*
X130616000Y-126594000D01*
X130616000Y-128246000D01*
G37*
G36*
X188561000Y-128151000D02*
G01*
X185949000Y-128151000D01*
X185949000Y-127049000D01*
X188561000Y-127049000D01*
X188561000Y-128151000D01*
G37*
G36*
X137918604Y-126078347D02*
G01*
X137955144Y-126089432D01*
X137988821Y-126107433D01*
X138018341Y-126131659D01*
X138042567Y-126161179D01*
X138060568Y-126194856D01*
X138071653Y-126231396D01*
X138076000Y-126275538D01*
X138076000Y-127724462D01*
X138071653Y-127768604D01*
X138060568Y-127805144D01*
X138042567Y-127838821D01*
X138018341Y-127868341D01*
X137988821Y-127892567D01*
X137955144Y-127910568D01*
X137918604Y-127921653D01*
X137874462Y-127926000D01*
X136925538Y-127926000D01*
X136881396Y-127921653D01*
X136844856Y-127910568D01*
X136811179Y-127892567D01*
X136781659Y-127868341D01*
X136757433Y-127838821D01*
X136739432Y-127805144D01*
X136728347Y-127768604D01*
X136724000Y-127724462D01*
X136724000Y-126275538D01*
X136728347Y-126231396D01*
X136739432Y-126194856D01*
X136757433Y-126161179D01*
X136781659Y-126131659D01*
X136811179Y-126107433D01*
X136844856Y-126089432D01*
X136881396Y-126078347D01*
X136925538Y-126074000D01*
X137874462Y-126074000D01*
X137918604Y-126078347D01*
G37*
G36*
X135118604Y-126078347D02*
G01*
X135155144Y-126089432D01*
X135188821Y-126107433D01*
X135218341Y-126131659D01*
X135242567Y-126161179D01*
X135260568Y-126194856D01*
X135271653Y-126231396D01*
X135276000Y-126275538D01*
X135276000Y-127724462D01*
X135271653Y-127768604D01*
X135260568Y-127805144D01*
X135242567Y-127838821D01*
X135218341Y-127868341D01*
X135188821Y-127892567D01*
X135155144Y-127910568D01*
X135118604Y-127921653D01*
X135074462Y-127926000D01*
X134125538Y-127926000D01*
X134081396Y-127921653D01*
X134044856Y-127910568D01*
X134011179Y-127892567D01*
X133981659Y-127868341D01*
X133957433Y-127838821D01*
X133939432Y-127805144D01*
X133928347Y-127768604D01*
X133924000Y-127724462D01*
X133924000Y-126275538D01*
X133928347Y-126231396D01*
X133939432Y-126194856D01*
X133957433Y-126161179D01*
X133981659Y-126131659D01*
X134011179Y-126107433D01*
X134044856Y-126089432D01*
X134081396Y-126078347D01*
X134125538Y-126074000D01*
X135074462Y-126074000D01*
X135118604Y-126078347D01*
G37*
G36*
X150551000Y-127596000D02*
G01*
X148449000Y-127596000D01*
X148449000Y-126594000D01*
X150551000Y-126594000D01*
X150551000Y-127596000D01*
G37*
G36*
X167551000Y-127596000D02*
G01*
X165449000Y-127596000D01*
X165449000Y-126594000D01*
X167551000Y-126594000D01*
X167551000Y-127596000D01*
G37*
G36*
X173168604Y-126178347D02*
G01*
X173205144Y-126189432D01*
X173238821Y-126207433D01*
X173268341Y-126231659D01*
X173292567Y-126261179D01*
X173310568Y-126294856D01*
X173321653Y-126331396D01*
X173326000Y-126375538D01*
X173326000Y-127324462D01*
X173321653Y-127368604D01*
X173310568Y-127405144D01*
X173292567Y-127438821D01*
X173268341Y-127468341D01*
X173238821Y-127492567D01*
X173205144Y-127510568D01*
X173168604Y-127521653D01*
X173124462Y-127526000D01*
X171675538Y-127526000D01*
X171631396Y-127521653D01*
X171594856Y-127510568D01*
X171561179Y-127492567D01*
X171531659Y-127468341D01*
X171507433Y-127438821D01*
X171489432Y-127405144D01*
X171478347Y-127368604D01*
X171474000Y-127324462D01*
X171474000Y-126375538D01*
X171478347Y-126331396D01*
X171489432Y-126294856D01*
X171507433Y-126261179D01*
X171531659Y-126231659D01*
X171561179Y-126207433D01*
X171594856Y-126189432D01*
X171631396Y-126178347D01*
X171675538Y-126174000D01*
X173124462Y-126174000D01*
X173168604Y-126178347D01*
G37*
G36*
X170618604Y-126178347D02*
G01*
X170655144Y-126189432D01*
X170688821Y-126207433D01*
X170718341Y-126231659D01*
X170742567Y-126261179D01*
X170760568Y-126294856D01*
X170771653Y-126331396D01*
X170776000Y-126375538D01*
X170776000Y-127324462D01*
X170771653Y-127368604D01*
X170760568Y-127405144D01*
X170742567Y-127438821D01*
X170718341Y-127468341D01*
X170688821Y-127492567D01*
X170655144Y-127510568D01*
X170618604Y-127521653D01*
X170574462Y-127526000D01*
X169125538Y-127526000D01*
X169081396Y-127521653D01*
X169044856Y-127510568D01*
X169011179Y-127492567D01*
X168981659Y-127468341D01*
X168957433Y-127438821D01*
X168939432Y-127405144D01*
X168928347Y-127368604D01*
X168924000Y-127324462D01*
X168924000Y-126375538D01*
X168928347Y-126331396D01*
X168939432Y-126294856D01*
X168957433Y-126261179D01*
X168981659Y-126231659D01*
X169011179Y-126207433D01*
X169044856Y-126189432D01*
X169081396Y-126178347D01*
X169125538Y-126174000D01*
X170574462Y-126174000D01*
X170618604Y-126178347D01*
G37*
G36*
X122008015Y-125831973D02*
G01*
X122111879Y-125863479D01*
X122139055Y-125878005D01*
X122207600Y-125914643D01*
X122291501Y-125983499D01*
X122360357Y-126067400D01*
X122372133Y-126089432D01*
X122411521Y-126163121D01*
X122416397Y-126179196D01*
X122433412Y-126235287D01*
X122442789Y-126257925D01*
X122451000Y-126270214D01*
X122451000Y-126341799D01*
X122451601Y-126354039D01*
X122453666Y-126375000D01*
X122451601Y-126395961D01*
X122451000Y-126408201D01*
X122451000Y-127301000D01*
X120449000Y-127301000D01*
X120449000Y-126408201D01*
X120448399Y-126395961D01*
X120446334Y-126375000D01*
X120448399Y-126354039D01*
X120449000Y-126341799D01*
X120449000Y-126270768D01*
X120450905Y-126268447D01*
X120466588Y-126235287D01*
X120483603Y-126179196D01*
X120488479Y-126163121D01*
X120527867Y-126089432D01*
X120539643Y-126067400D01*
X120608499Y-125983499D01*
X120692400Y-125914643D01*
X120760945Y-125878005D01*
X120788121Y-125863479D01*
X120891985Y-125831973D01*
X120972933Y-125824000D01*
X121927067Y-125824000D01*
X122008015Y-125831973D01*
G37*
G36*
X167551000Y-126326000D02*
G01*
X165449000Y-126326000D01*
X165449000Y-125324000D01*
X167551000Y-125324000D01*
X167551000Y-126326000D01*
G37*
G36*
X150551000Y-126326000D02*
G01*
X148449000Y-126326000D01*
X148449000Y-125324000D01*
X150551000Y-125324000D01*
X150551000Y-126326000D01*
G37*
G36*
X131180000Y-126020000D02*
G01*
X128080000Y-126020000D01*
X128080000Y-123420000D01*
X131180000Y-123420000D01*
X131180000Y-126020000D01*
G37*
G36*
X185251000Y-125611000D02*
G01*
X182639000Y-125611000D01*
X182639000Y-124509000D01*
X185251000Y-124509000D01*
X185251000Y-125611000D01*
G37*
G36*
X126268604Y-123728347D02*
G01*
X126305144Y-123739432D01*
X126338821Y-123757433D01*
X126368341Y-123781659D01*
X126392567Y-123811179D01*
X126410568Y-123844856D01*
X126421653Y-123881396D01*
X126426000Y-123925538D01*
X126426000Y-124874462D01*
X126421653Y-124918604D01*
X126410568Y-124955144D01*
X126392567Y-124988821D01*
X126368341Y-125018341D01*
X126338821Y-125042567D01*
X126305144Y-125060568D01*
X126268604Y-125071653D01*
X126224462Y-125076000D01*
X124775538Y-125076000D01*
X124731396Y-125071653D01*
X124694856Y-125060568D01*
X124661179Y-125042567D01*
X124631659Y-125018341D01*
X124607433Y-124988821D01*
X124589432Y-124955144D01*
X124578347Y-124918604D01*
X124574000Y-124874462D01*
X124574000Y-123925538D01*
X124578347Y-123881396D01*
X124589432Y-123844856D01*
X124607433Y-123811179D01*
X124631659Y-123781659D01*
X124661179Y-123757433D01*
X124694856Y-123739432D01*
X124731396Y-123728347D01*
X124775538Y-123724000D01*
X126224462Y-123724000D01*
X126268604Y-123728347D01*
G37*
G36*
X150551000Y-125056000D02*
G01*
X148449000Y-125056000D01*
X148449000Y-124054000D01*
X150551000Y-124054000D01*
X150551000Y-125056000D01*
G37*
G36*
X167551000Y-125056000D02*
G01*
X165449000Y-125056000D01*
X165449000Y-124054000D01*
X167551000Y-124054000D01*
X167551000Y-125056000D01*
G37*
G36*
X137681000Y-125021000D02*
G01*
X133379000Y-125021000D01*
X133379000Y-123419000D01*
X137681000Y-123419000D01*
X137681000Y-125021000D01*
G37*
G36*
X170618604Y-123378347D02*
G01*
X170655144Y-123389432D01*
X170688821Y-123407433D01*
X170718341Y-123431659D01*
X170742567Y-123461179D01*
X170760568Y-123494856D01*
X170771653Y-123531396D01*
X170776000Y-123575538D01*
X170776000Y-124524462D01*
X170771653Y-124568604D01*
X170760568Y-124605144D01*
X170742567Y-124638821D01*
X170718341Y-124668341D01*
X170688821Y-124692567D01*
X170655144Y-124710568D01*
X170618604Y-124721653D01*
X170574462Y-124726000D01*
X169125538Y-124726000D01*
X169081396Y-124721653D01*
X169044856Y-124710568D01*
X169011179Y-124692567D01*
X168981659Y-124668341D01*
X168957433Y-124638821D01*
X168939432Y-124605144D01*
X168928347Y-124568604D01*
X168924000Y-124524462D01*
X168924000Y-123575538D01*
X168928347Y-123531396D01*
X168939432Y-123494856D01*
X168957433Y-123461179D01*
X168981659Y-123431659D01*
X169011179Y-123407433D01*
X169044856Y-123389432D01*
X169081396Y-123378347D01*
X169125538Y-123374000D01*
X170574462Y-123374000D01*
X170618604Y-123378347D01*
G37*
G36*
X173168604Y-123378347D02*
G01*
X173205144Y-123389432D01*
X173238821Y-123407433D01*
X173268341Y-123431659D01*
X173292567Y-123461179D01*
X173310568Y-123494856D01*
X173321653Y-123531396D01*
X173326000Y-123575538D01*
X173326000Y-124524462D01*
X173321653Y-124568604D01*
X173310568Y-124605144D01*
X173292567Y-124638821D01*
X173268341Y-124668341D01*
X173238821Y-124692567D01*
X173205144Y-124710568D01*
X173168604Y-124721653D01*
X173124462Y-124726000D01*
X171675538Y-124726000D01*
X171631396Y-124721653D01*
X171594856Y-124710568D01*
X171561179Y-124692567D01*
X171531659Y-124668341D01*
X171507433Y-124638821D01*
X171489432Y-124605144D01*
X171478347Y-124568604D01*
X171474000Y-124524462D01*
X171474000Y-123575538D01*
X171478347Y-123531396D01*
X171489432Y-123494856D01*
X171507433Y-123461179D01*
X171531659Y-123431659D01*
X171561179Y-123407433D01*
X171594856Y-123389432D01*
X171631396Y-123378347D01*
X171675538Y-123374000D01*
X173124462Y-123374000D01*
X173168604Y-123378347D01*
G37*
G36*
X150551000Y-123786000D02*
G01*
X148449000Y-123786000D01*
X148449000Y-122784000D01*
X150551000Y-122784000D01*
X150551000Y-123786000D01*
G37*
G36*
X167551000Y-123786000D02*
G01*
X165449000Y-123786000D01*
X165449000Y-122784000D01*
X167551000Y-122784000D01*
X167551000Y-123786000D01*
G37*
G36*
X128076000Y-122846000D02*
G01*
X127374000Y-122846000D01*
X127374000Y-121194000D01*
X128076000Y-121194000D01*
X128076000Y-122846000D01*
G37*
G36*
X131886000Y-122846000D02*
G01*
X131184000Y-122846000D01*
X131184000Y-121194000D01*
X131886000Y-121194000D01*
X131886000Y-122846000D01*
G37*
G36*
X130616000Y-122846000D02*
G01*
X129914000Y-122846000D01*
X129914000Y-121194000D01*
X130616000Y-121194000D01*
X130616000Y-122846000D01*
G37*
G36*
X129346000Y-122846000D02*
G01*
X128644000Y-122846000D01*
X128644000Y-121194000D01*
X129346000Y-121194000D01*
X129346000Y-122846000D01*
G37*
G36*
X150551000Y-122516000D02*
G01*
X148449000Y-122516000D01*
X148449000Y-121514000D01*
X150551000Y-121514000D01*
X150551000Y-122516000D01*
G37*
G36*
X167551000Y-122516000D02*
G01*
X165449000Y-122516000D01*
X165449000Y-121514000D01*
X167551000Y-121514000D01*
X167551000Y-122516000D01*
G37*
G36*
X126268604Y-120928347D02*
G01*
X126305144Y-120939432D01*
X126338821Y-120957433D01*
X126368341Y-120981659D01*
X126392567Y-121011179D01*
X126410568Y-121044856D01*
X126421653Y-121081396D01*
X126426000Y-121125538D01*
X126426000Y-122074462D01*
X126421653Y-122118604D01*
X126410568Y-122155144D01*
X126392567Y-122188821D01*
X126368341Y-122218341D01*
X126338821Y-122242567D01*
X126305144Y-122260568D01*
X126268604Y-122271653D01*
X126224462Y-122276000D01*
X124775538Y-122276000D01*
X124731396Y-122271653D01*
X124694856Y-122260568D01*
X124661179Y-122242567D01*
X124631659Y-122218341D01*
X124607433Y-122188821D01*
X124589432Y-122155144D01*
X124578347Y-122118604D01*
X124574000Y-122074462D01*
X124574000Y-121125538D01*
X124578347Y-121081396D01*
X124589432Y-121044856D01*
X124607433Y-121011179D01*
X124631659Y-120981659D01*
X124661179Y-120957433D01*
X124694856Y-120939432D01*
X124731396Y-120928347D01*
X124775538Y-120924000D01*
X126224462Y-120924000D01*
X126268604Y-120928347D01*
G37*
G36*
X184118604Y-120078347D02*
G01*
X184155144Y-120089432D01*
X184188821Y-120107433D01*
X184218341Y-120131659D01*
X184242567Y-120161179D01*
X184260568Y-120194856D01*
X184271653Y-120231396D01*
X184276000Y-120275538D01*
X184276000Y-121724462D01*
X184271653Y-121768604D01*
X184260568Y-121805144D01*
X184242567Y-121838821D01*
X184218341Y-121868341D01*
X184188821Y-121892567D01*
X184155144Y-121910568D01*
X184118604Y-121921653D01*
X184074462Y-121926000D01*
X183125538Y-121926000D01*
X183081396Y-121921653D01*
X183044856Y-121910568D01*
X183011179Y-121892567D01*
X182981659Y-121868341D01*
X182957433Y-121838821D01*
X182939432Y-121805144D01*
X182928347Y-121768604D01*
X182924000Y-121724462D01*
X182924000Y-120275538D01*
X182928347Y-120231396D01*
X182939432Y-120194856D01*
X182957433Y-120161179D01*
X182981659Y-120131659D01*
X183011179Y-120107433D01*
X183044856Y-120089432D01*
X183081396Y-120078347D01*
X183125538Y-120074000D01*
X184074462Y-120074000D01*
X184118604Y-120078347D01*
G37*
G36*
X186918604Y-120078347D02*
G01*
X186955144Y-120089432D01*
X186988821Y-120107433D01*
X187018341Y-120131659D01*
X187042567Y-120161179D01*
X187060568Y-120194856D01*
X187071653Y-120231396D01*
X187076000Y-120275538D01*
X187076000Y-121724462D01*
X187071653Y-121768604D01*
X187060568Y-121805144D01*
X187042567Y-121838821D01*
X187018341Y-121868341D01*
X186988821Y-121892567D01*
X186955144Y-121910568D01*
X186918604Y-121921653D01*
X186874462Y-121926000D01*
X185925538Y-121926000D01*
X185881396Y-121921653D01*
X185844856Y-121910568D01*
X185811179Y-121892567D01*
X185781659Y-121868341D01*
X185757433Y-121838821D01*
X185739432Y-121805144D01*
X185728347Y-121768604D01*
X185724000Y-121724462D01*
X185724000Y-120275538D01*
X185728347Y-120231396D01*
X185739432Y-120194856D01*
X185757433Y-120161179D01*
X185781659Y-120131659D01*
X185811179Y-120107433D01*
X185844856Y-120089432D01*
X185881396Y-120078347D01*
X185925538Y-120074000D01*
X186874462Y-120074000D01*
X186918604Y-120078347D01*
G37*
G36*
X173118604Y-119878347D02*
G01*
X173155144Y-119889432D01*
X173188821Y-119907433D01*
X173218341Y-119931659D01*
X173242567Y-119961179D01*
X173260568Y-119994856D01*
X173271653Y-120031396D01*
X173276000Y-120075538D01*
X173276000Y-121524462D01*
X173271653Y-121568604D01*
X173260568Y-121605144D01*
X173242567Y-121638821D01*
X173218341Y-121668341D01*
X173188821Y-121692567D01*
X173155144Y-121710568D01*
X173118604Y-121721653D01*
X173074462Y-121726000D01*
X172125538Y-121726000D01*
X172081396Y-121721653D01*
X172044856Y-121710568D01*
X172011179Y-121692567D01*
X171981659Y-121668341D01*
X171957433Y-121638821D01*
X171939432Y-121605144D01*
X171928347Y-121568604D01*
X171924000Y-121524462D01*
X171924000Y-120075538D01*
X171928347Y-120031396D01*
X171939432Y-119994856D01*
X171957433Y-119961179D01*
X171981659Y-119931659D01*
X172011179Y-119907433D01*
X172044856Y-119889432D01*
X172081396Y-119878347D01*
X172125538Y-119874000D01*
X173074462Y-119874000D01*
X173118604Y-119878347D01*
G37*
G36*
X175918604Y-119878347D02*
G01*
X175955144Y-119889432D01*
X175988821Y-119907433D01*
X176018341Y-119931659D01*
X176042567Y-119961179D01*
X176060568Y-119994856D01*
X176071653Y-120031396D01*
X176076000Y-120075538D01*
X176076000Y-121524462D01*
X176071653Y-121568604D01*
X176060568Y-121605144D01*
X176042567Y-121638821D01*
X176018341Y-121668341D01*
X175988821Y-121692567D01*
X175955144Y-121710568D01*
X175918604Y-121721653D01*
X175874462Y-121726000D01*
X174925538Y-121726000D01*
X174881396Y-121721653D01*
X174844856Y-121710568D01*
X174811179Y-121692567D01*
X174781659Y-121668341D01*
X174757433Y-121638821D01*
X174739432Y-121605144D01*
X174728347Y-121568604D01*
X174724000Y-121524462D01*
X174724000Y-120075538D01*
X174728347Y-120031396D01*
X174739432Y-119994856D01*
X174757433Y-119961179D01*
X174781659Y-119931659D01*
X174811179Y-119907433D01*
X174844856Y-119889432D01*
X174881396Y-119878347D01*
X174925538Y-119874000D01*
X175874462Y-119874000D01*
X175918604Y-119878347D01*
G37*
G36*
X169784999Y-119999737D02*
G01*
X169794608Y-120002652D01*
X169803472Y-120007390D01*
X169811212Y-120013742D01*
X169811213Y-120013743D01*
X169811237Y-120013763D01*
X169817640Y-120021573D01*
X169817677Y-120021628D01*
X169825480Y-120031147D01*
X169825511Y-120031122D01*
X169836853Y-120044972D01*
X169855779Y-120060537D01*
X169877377Y-120072111D01*
X169900819Y-120079249D01*
X169925202Y-120081676D01*
X169949591Y-120079300D01*
X169973047Y-120072211D01*
X169994670Y-120060682D01*
X170013628Y-120045157D01*
X170029193Y-120026231D01*
X170031029Y-120023175D01*
X170032418Y-120021486D01*
X170032419Y-120021484D01*
X170038801Y-120013725D01*
X170046573Y-120007360D01*
X170046575Y-120007358D01*
X170055399Y-120002654D01*
X170055438Y-120002633D01*
X170065055Y-119999727D01*
X170065085Y-119999718D01*
X170081113Y-119998148D01*
X171218860Y-119998148D01*
X171234999Y-119999737D01*
X171244608Y-120002652D01*
X171253472Y-120007390D01*
X171261237Y-120013763D01*
X171267610Y-120021528D01*
X171272348Y-120030392D01*
X171275263Y-120040001D01*
X171276852Y-120056140D01*
X171276852Y-121543860D01*
X171275263Y-121559999D01*
X171272348Y-121569608D01*
X171267610Y-121578472D01*
X171261237Y-121586237D01*
X171253472Y-121592610D01*
X171244608Y-121597348D01*
X171234999Y-121600263D01*
X171218860Y-121601852D01*
X170081140Y-121601852D01*
X170065001Y-121600263D01*
X170055392Y-121597348D01*
X170046528Y-121592610D01*
X170038763Y-121586237D01*
X170028116Y-121573263D01*
X170021947Y-121564032D01*
X170004619Y-121546706D01*
X169984244Y-121533093D01*
X169961605Y-121523717D01*
X169937572Y-121518937D01*
X169913068Y-121518938D01*
X169889035Y-121523720D01*
X169866396Y-121533098D01*
X169846022Y-121546713D01*
X169828696Y-121564041D01*
X169821825Y-121573317D01*
X169817640Y-121578427D01*
X169811275Y-121586199D01*
X169803516Y-121592581D01*
X169794661Y-121597326D01*
X169791623Y-121598251D01*
X169785085Y-121600242D01*
X169785082Y-121600242D01*
X169785050Y-121600252D01*
X169775000Y-121601247D01*
X169774935Y-121601247D01*
X169768825Y-121601852D01*
X168781140Y-121601852D01*
X168765001Y-121600263D01*
X168755392Y-121597348D01*
X168746528Y-121592610D01*
X168738763Y-121586237D01*
X168732390Y-121578472D01*
X168727652Y-121569608D01*
X168724737Y-121559999D01*
X168723148Y-121543860D01*
X168723148Y-120056140D01*
X168724737Y-120040001D01*
X168727652Y-120030392D01*
X168732390Y-120021528D01*
X168738763Y-120013763D01*
X168746528Y-120007390D01*
X168755392Y-120002652D01*
X168765001Y-119999737D01*
X168781140Y-119998148D01*
X169768860Y-119998148D01*
X169784999Y-119999737D01*
G37*
G36*
X137681000Y-121421000D02*
G01*
X133379000Y-121421000D01*
X133379000Y-119819000D01*
X137681000Y-119819000D01*
X137681000Y-121421000D01*
G37*
G36*
X150551000Y-121246000D02*
G01*
X148449000Y-121246000D01*
X148449000Y-120244000D01*
X150551000Y-120244000D01*
X150551000Y-121246000D01*
G37*
G36*
X167551000Y-121246000D02*
G01*
X165449000Y-121246000D01*
X165449000Y-120244000D01*
X167551000Y-120244000D01*
X167551000Y-121246000D01*
G37*
G36*
X154056000Y-120796000D02*
G01*
X153054000Y-120796000D01*
X153054000Y-118694000D01*
X154056000Y-118694000D01*
X154056000Y-120796000D01*
G37*
G36*
X156596000Y-120796000D02*
G01*
X155594000Y-120796000D01*
X155594000Y-118694000D01*
X156596000Y-118694000D01*
X156596000Y-120796000D01*
G37*
G36*
X157866000Y-120796000D02*
G01*
X156864000Y-120796000D01*
X156864000Y-118694000D01*
X157866000Y-118694000D01*
X157866000Y-120796000D01*
G37*
G36*
X155326000Y-120796000D02*
G01*
X154324000Y-120796000D01*
X154324000Y-118694000D01*
X155326000Y-118694000D01*
X155326000Y-120796000D01*
G37*
G36*
X152786000Y-120796000D02*
G01*
X151784000Y-120796000D01*
X151784000Y-118694000D01*
X152786000Y-118694000D01*
X152786000Y-120796000D01*
G37*
G36*
X164216000Y-120796000D02*
G01*
X163214000Y-120796000D01*
X163214000Y-118694000D01*
X164216000Y-118694000D01*
X164216000Y-120796000D01*
G37*
G36*
X160406000Y-120796000D02*
G01*
X159404000Y-120796000D01*
X159404000Y-118694000D01*
X160406000Y-118694000D01*
X160406000Y-120796000D01*
G37*
G36*
X161676000Y-120796000D02*
G01*
X160674000Y-120796000D01*
X160674000Y-118694000D01*
X161676000Y-118694000D01*
X161676000Y-120796000D01*
G37*
G36*
X162946000Y-120796000D02*
G01*
X161944000Y-120796000D01*
X161944000Y-118694000D01*
X162946000Y-118694000D01*
X162946000Y-120796000D01*
G37*
G36*
X159136000Y-120796000D02*
G01*
X158134000Y-120796000D01*
X158134000Y-118694000D01*
X159136000Y-118694000D01*
X159136000Y-120796000D01*
G37*
G36*
X126268604Y-118728347D02*
G01*
X126305144Y-118739432D01*
X126338821Y-118757433D01*
X126368341Y-118781659D01*
X126392567Y-118811179D01*
X126410568Y-118844856D01*
X126421653Y-118881396D01*
X126426000Y-118925538D01*
X126426000Y-119874462D01*
X126421653Y-119918604D01*
X126410568Y-119955144D01*
X126392567Y-119988821D01*
X126368341Y-120018341D01*
X126338821Y-120042567D01*
X126305144Y-120060568D01*
X126268604Y-120071653D01*
X126224462Y-120076000D01*
X124775538Y-120076000D01*
X124731396Y-120071653D01*
X124694856Y-120060568D01*
X124661179Y-120042567D01*
X124631659Y-120018341D01*
X124607433Y-119988821D01*
X124589432Y-119955144D01*
X124578347Y-119918604D01*
X124574000Y-119874462D01*
X124574000Y-118925538D01*
X124578347Y-118881396D01*
X124589432Y-118844856D01*
X124607433Y-118811179D01*
X124631659Y-118781659D01*
X124661179Y-118757433D01*
X124694856Y-118739432D01*
X124731396Y-118728347D01*
X124775538Y-118724000D01*
X126224462Y-118724000D01*
X126268604Y-118728347D01*
G37*
G36*
X128768604Y-118728347D02*
G01*
X128805144Y-118739432D01*
X128838821Y-118757433D01*
X128868341Y-118781659D01*
X128892567Y-118811179D01*
X128910568Y-118844856D01*
X128921653Y-118881396D01*
X128926000Y-118925538D01*
X128926000Y-119874462D01*
X128921653Y-119918604D01*
X128910568Y-119955144D01*
X128892567Y-119988821D01*
X128868341Y-120018341D01*
X128838821Y-120042567D01*
X128805144Y-120060568D01*
X128768604Y-120071653D01*
X128724462Y-120076000D01*
X127275538Y-120076000D01*
X127231396Y-120071653D01*
X127194856Y-120060568D01*
X127161179Y-120042567D01*
X127131659Y-120018341D01*
X127107433Y-119988821D01*
X127089432Y-119955144D01*
X127078347Y-119918604D01*
X127074000Y-119874462D01*
X127074000Y-118925538D01*
X127078347Y-118881396D01*
X127089432Y-118844856D01*
X127107433Y-118811179D01*
X127131659Y-118781659D01*
X127161179Y-118757433D01*
X127194856Y-118739432D01*
X127231396Y-118728347D01*
X127275538Y-118724000D01*
X128724462Y-118724000D01*
X128768604Y-118728347D01*
G37*
G36*
X133418604Y-117328347D02*
G01*
X133455144Y-117339432D01*
X133488821Y-117357433D01*
X133518341Y-117381659D01*
X133542567Y-117411179D01*
X133560568Y-117444856D01*
X133571653Y-117481396D01*
X133576000Y-117525538D01*
X133576000Y-118974462D01*
X133571653Y-119018604D01*
X133560568Y-119055144D01*
X133542567Y-119088821D01*
X133518341Y-119118341D01*
X133488821Y-119142567D01*
X133455144Y-119160568D01*
X133418604Y-119171653D01*
X133374462Y-119176000D01*
X132425538Y-119176000D01*
X132381396Y-119171653D01*
X132344856Y-119160568D01*
X132311179Y-119142567D01*
X132281659Y-119118341D01*
X132257433Y-119088821D01*
X132239432Y-119055144D01*
X132228347Y-119018604D01*
X132224000Y-118974462D01*
X132224000Y-117525538D01*
X132228347Y-117481396D01*
X132239432Y-117444856D01*
X132257433Y-117411179D01*
X132281659Y-117381659D01*
X132311179Y-117357433D01*
X132344856Y-117339432D01*
X132381396Y-117328347D01*
X132425538Y-117324000D01*
X133374462Y-117324000D01*
X133418604Y-117328347D01*
G37*
G36*
X130618604Y-117328347D02*
G01*
X130655144Y-117339432D01*
X130688821Y-117357433D01*
X130718341Y-117381659D01*
X130742567Y-117411179D01*
X130760568Y-117444856D01*
X130771653Y-117481396D01*
X130776000Y-117525538D01*
X130776000Y-118974462D01*
X130771653Y-119018604D01*
X130760568Y-119055144D01*
X130742567Y-119088821D01*
X130718341Y-119118341D01*
X130688821Y-119142567D01*
X130655144Y-119160568D01*
X130618604Y-119171653D01*
X130574462Y-119176000D01*
X129625538Y-119176000D01*
X129581396Y-119171653D01*
X129544856Y-119160568D01*
X129511179Y-119142567D01*
X129481659Y-119118341D01*
X129457433Y-119088821D01*
X129439432Y-119055144D01*
X129428347Y-119018604D01*
X129424000Y-118974462D01*
X129424000Y-117525538D01*
X129428347Y-117481396D01*
X129439432Y-117444856D01*
X129457433Y-117411179D01*
X129481659Y-117381659D01*
X129511179Y-117357433D01*
X129544856Y-117339432D01*
X129581396Y-117328347D01*
X129625538Y-117324000D01*
X130574462Y-117324000D01*
X130618604Y-117328347D01*
G37*
G36*
X184368604Y-117328347D02*
G01*
X184405144Y-117339432D01*
X184438821Y-117357433D01*
X184468341Y-117381659D01*
X184492567Y-117411179D01*
X184510568Y-117444856D01*
X184521653Y-117481396D01*
X184526000Y-117525538D01*
X184526000Y-118474462D01*
X184521653Y-118518604D01*
X184510568Y-118555144D01*
X184492567Y-118588821D01*
X184468341Y-118618341D01*
X184438821Y-118642567D01*
X184405144Y-118660568D01*
X184368604Y-118671653D01*
X184324462Y-118676000D01*
X182875538Y-118676000D01*
X182831396Y-118671653D01*
X182794856Y-118660568D01*
X182761179Y-118642567D01*
X182731659Y-118618341D01*
X182707433Y-118588821D01*
X182689432Y-118555144D01*
X182678347Y-118518604D01*
X182674000Y-118474462D01*
X182674000Y-117525538D01*
X182678347Y-117481396D01*
X182689432Y-117444856D01*
X182707433Y-117411179D01*
X182731659Y-117381659D01*
X182761179Y-117357433D01*
X182794856Y-117339432D01*
X182831396Y-117328347D01*
X182875538Y-117324000D01*
X184324462Y-117324000D01*
X184368604Y-117328347D01*
G37*
G36*
X189301000Y-118651000D02*
G01*
X188199000Y-118651000D01*
X188199000Y-116999000D01*
X189301000Y-116999000D01*
X189301000Y-118651000D01*
G37*
G36*
X187601000Y-118651000D02*
G01*
X186499000Y-118651000D01*
X186499000Y-116999000D01*
X187601000Y-116999000D01*
X187601000Y-118651000D01*
G37*
G36*
X126268604Y-115928347D02*
G01*
X126305144Y-115939432D01*
X126338821Y-115957433D01*
X126368341Y-115981659D01*
X126392567Y-116011179D01*
X126410568Y-116044856D01*
X126421653Y-116081396D01*
X126426000Y-116125538D01*
X126426000Y-117074462D01*
X126421653Y-117118604D01*
X126410568Y-117155144D01*
X126392567Y-117188821D01*
X126368341Y-117218341D01*
X126338821Y-117242567D01*
X126305144Y-117260568D01*
X126268604Y-117271653D01*
X126224462Y-117276000D01*
X124775538Y-117276000D01*
X124731396Y-117271653D01*
X124694856Y-117260568D01*
X124661179Y-117242567D01*
X124631659Y-117218341D01*
X124607433Y-117188821D01*
X124589432Y-117155144D01*
X124578347Y-117118604D01*
X124574000Y-117074462D01*
X124574000Y-116125538D01*
X124578347Y-116081396D01*
X124589432Y-116044856D01*
X124607433Y-116011179D01*
X124631659Y-115981659D01*
X124661179Y-115957433D01*
X124694856Y-115939432D01*
X124731396Y-115928347D01*
X124775538Y-115924000D01*
X126224462Y-115924000D01*
X126268604Y-115928347D01*
G37*
G36*
X128768604Y-115928347D02*
G01*
X128805144Y-115939432D01*
X128838821Y-115957433D01*
X128868341Y-115981659D01*
X128892567Y-116011179D01*
X128910568Y-116044856D01*
X128921653Y-116081396D01*
X128926000Y-116125538D01*
X128926000Y-117074462D01*
X128921653Y-117118604D01*
X128910568Y-117155144D01*
X128892567Y-117188821D01*
X128868341Y-117218341D01*
X128838821Y-117242567D01*
X128805144Y-117260568D01*
X128768604Y-117271653D01*
X128724462Y-117276000D01*
X127275538Y-117276000D01*
X127231396Y-117271653D01*
X127194856Y-117260568D01*
X127161179Y-117242567D01*
X127131659Y-117218341D01*
X127107433Y-117188821D01*
X127089432Y-117155144D01*
X127078347Y-117118604D01*
X127074000Y-117074462D01*
X127074000Y-116125538D01*
X127078347Y-116081396D01*
X127089432Y-116044856D01*
X127107433Y-116011179D01*
X127131659Y-115981659D01*
X127161179Y-115957433D01*
X127194856Y-115939432D01*
X127231396Y-115928347D01*
X127275538Y-115924000D01*
X128724462Y-115924000D01*
X128768604Y-115928347D01*
G37*
G36*
X152881000Y-116601000D02*
G01*
X152039000Y-116601000D01*
X152039000Y-114099000D01*
X152881000Y-114099000D01*
X152881000Y-116601000D01*
G37*
G36*
X157961000Y-116601000D02*
G01*
X157119000Y-116601000D01*
X157119000Y-114099000D01*
X157961000Y-114099000D01*
X157961000Y-116601000D01*
G37*
G36*
X156691000Y-116601000D02*
G01*
X155849000Y-116601000D01*
X155849000Y-114099000D01*
X156691000Y-114099000D01*
X156691000Y-116601000D01*
G37*
G36*
X155421000Y-116601000D02*
G01*
X154579000Y-116601000D01*
X154579000Y-114099000D01*
X155421000Y-114099000D01*
X155421000Y-116601000D01*
G37*
G36*
X154151000Y-116601000D02*
G01*
X153309000Y-116601000D01*
X153309000Y-114099000D01*
X154151000Y-114099000D01*
X154151000Y-116601000D01*
G37*
G36*
X184368604Y-114528347D02*
G01*
X184405144Y-114539432D01*
X184438821Y-114557433D01*
X184468341Y-114581659D01*
X184492567Y-114611179D01*
X184510568Y-114644856D01*
X184521653Y-114681396D01*
X184526000Y-114725538D01*
X184526000Y-115674462D01*
X184521653Y-115718604D01*
X184510568Y-115755144D01*
X184492567Y-115788821D01*
X184468341Y-115818341D01*
X184438821Y-115842567D01*
X184405144Y-115860568D01*
X184368604Y-115871653D01*
X184324462Y-115876000D01*
X182875538Y-115876000D01*
X182831396Y-115871653D01*
X182794856Y-115860568D01*
X182761179Y-115842567D01*
X182731659Y-115818341D01*
X182707433Y-115788821D01*
X182689432Y-115755144D01*
X182678347Y-115718604D01*
X182674000Y-115674462D01*
X182674000Y-114725538D01*
X182678347Y-114681396D01*
X182689432Y-114644856D01*
X182707433Y-114611179D01*
X182731659Y-114581659D01*
X182761179Y-114557433D01*
X182794856Y-114539432D01*
X182831396Y-114528347D01*
X182875538Y-114524000D01*
X184324462Y-114524000D01*
X184368604Y-114528347D01*
G37*
G36*
X187601000Y-113401000D02*
G01*
X186499000Y-113401000D01*
X186499000Y-111749000D01*
X187601000Y-111749000D01*
X187601000Y-113401000D01*
G37*
G36*
X189301000Y-113401000D02*
G01*
X188199000Y-113401000D01*
X188199000Y-111749000D01*
X189301000Y-111749000D01*
X189301000Y-113401000D01*
G37*
G36*
X154151000Y-112701000D02*
G01*
X153309000Y-112701000D01*
X153309000Y-110199000D01*
X154151000Y-110199000D01*
X154151000Y-112701000D01*
G37*
G36*
X155421000Y-112701000D02*
G01*
X154579000Y-112701000D01*
X154579000Y-110199000D01*
X155421000Y-110199000D01*
X155421000Y-112701000D01*
G37*
G36*
X156691000Y-112701000D02*
G01*
X155849000Y-112701000D01*
X155849000Y-110199000D01*
X156691000Y-110199000D01*
X156691000Y-112701000D01*
G37*
G36*
X157961000Y-112701000D02*
G01*
X157119000Y-112701000D01*
X157119000Y-110199000D01*
X157961000Y-110199000D01*
X157961000Y-112701000D01*
G37*
G36*
X152881000Y-112701000D02*
G01*
X152039000Y-112701000D01*
X152039000Y-110199000D01*
X152881000Y-110199000D01*
X152881000Y-112701000D01*
G37*
G36*
X185275256Y-78491298D02*
G01*
X185381579Y-78512447D01*
X185682042Y-78636903D01*
X185952451Y-78817585D01*
X186182415Y-79047549D01*
X186363097Y-79317958D01*
X186446132Y-79518421D01*
X186487553Y-79618422D01*
X186531109Y-79837389D01*
X186551000Y-79937391D01*
X186551000Y-80262609D01*
X186487553Y-80581579D01*
X186363097Y-80882042D01*
X186182415Y-81152451D01*
X185952451Y-81382415D01*
X185682042Y-81563097D01*
X185381579Y-81687553D01*
X185275256Y-81708702D01*
X185062611Y-81751000D01*
X184737389Y-81751000D01*
X184524744Y-81708702D01*
X184418421Y-81687553D01*
X184117958Y-81563097D01*
X183847549Y-81382415D01*
X183617585Y-81152451D01*
X183436903Y-80882042D01*
X183312447Y-80581579D01*
X183249000Y-80262609D01*
X183249000Y-79937391D01*
X183268892Y-79837389D01*
X183312447Y-79618422D01*
X183353869Y-79518421D01*
X183436903Y-79317958D01*
X183617585Y-79047549D01*
X183847549Y-78817585D01*
X184117958Y-78636903D01*
X184418421Y-78512447D01*
X184524744Y-78491298D01*
X184737389Y-78449000D01*
X185062611Y-78449000D01*
X185275256Y-78491298D01*
G37*
G36*
X125375256Y-78391298D02*
G01*
X125481579Y-78412447D01*
X125782042Y-78536903D01*
X126052451Y-78717585D01*
X126282415Y-78947549D01*
X126282416Y-78947551D01*
X126463098Y-79217960D01*
X126587553Y-79518422D01*
X126651000Y-79837389D01*
X126651000Y-80162611D01*
X126608702Y-80375256D01*
X126587553Y-80481579D01*
X126463097Y-80782042D01*
X126282415Y-81052451D01*
X126052451Y-81282415D01*
X125782042Y-81463097D01*
X125481579Y-81587553D01*
X125375256Y-81608702D01*
X125162611Y-81651000D01*
X124837389Y-81651000D01*
X124624744Y-81608702D01*
X124518421Y-81587553D01*
X124217958Y-81463097D01*
X123947549Y-81282415D01*
X123717585Y-81052451D01*
X123536903Y-80782042D01*
X123412447Y-80481579D01*
X123391298Y-80375256D01*
X123349000Y-80162611D01*
X123349000Y-79837389D01*
X123412447Y-79518422D01*
X123536902Y-79217960D01*
X123717584Y-78947551D01*
X123717585Y-78947549D01*
X123947549Y-78717585D01*
X124217958Y-78536903D01*
X124518421Y-78412447D01*
X124624744Y-78391298D01*
X124837389Y-78349000D01*
X125162611Y-78349000D01*
X125375256Y-78391298D01*
G37*
M02*
