G04 #@! TF.GenerationSoftware,KiCad,Pcbnew,5.1.6*
G04 #@! TF.CreationDate,2020-08-29T17:23:06+02:00*
G04 #@! TF.ProjectId,ESP32_lamp,45535033-325f-46c6-916d-702e6b696361,rev?*
G04 #@! TF.SameCoordinates,Original*
G04 #@! TF.FileFunction,Paste,Bot*
G04 #@! TF.FilePolarity,Positive*
%FSLAX46Y46*%
G04 Gerber Fmt 4.6, Leading zero omitted, Abs format (unit mm)*
G04 Created by KiCad (PCBNEW 5.1.6) date 2020-08-29 17:23:06*
%MOMM*%
%LPD*%
G01*
G04 APERTURE LIST*
%ADD10R,1.000000X1.550000*%
%ADD11R,0.740000X2.400000*%
%ADD12R,2.510000X1.000000*%
%ADD13R,2.000000X0.900000*%
%ADD14R,0.900000X2.000000*%
%ADD15R,5.000000X5.000000*%
%ADD16R,4.200000X1.500000*%
%ADD17R,3.100000X2.600000*%
%ADD18R,0.600000X1.550000*%
%ADD19R,0.850000X0.300000*%
%ADD20R,1.900000X2.900000*%
%ADD21R,1.350000X0.400000*%
G04 APERTURE END LIST*
D10*
X188750000Y-112575000D03*
X188750000Y-117825000D03*
X187050000Y-117825000D03*
X187050000Y-112575000D03*
G36*
G01*
X182975000Y-117375000D02*
X184225000Y-117375000D01*
G75*
G02*
X184475000Y-117625000I0J-250000D01*
G01*
X184475000Y-118375000D01*
G75*
G02*
X184225000Y-118625000I-250000J0D01*
G01*
X182975000Y-118625000D01*
G75*
G02*
X182725000Y-118375000I0J250000D01*
G01*
X182725000Y-117625000D01*
G75*
G02*
X182975000Y-117375000I250000J0D01*
G01*
G37*
G36*
G01*
X182975000Y-114575000D02*
X184225000Y-114575000D01*
G75*
G02*
X184475000Y-114825000I0J-250000D01*
G01*
X184475000Y-115575000D01*
G75*
G02*
X184225000Y-115825000I-250000J0D01*
G01*
X182975000Y-115825000D01*
G75*
G02*
X182725000Y-115575000I0J250000D01*
G01*
X182725000Y-114825000D01*
G75*
G02*
X182975000Y-114575000I250000J0D01*
G01*
G37*
G36*
G01*
X185775000Y-121625000D02*
X185775000Y-120375000D01*
G75*
G02*
X186025000Y-120125000I250000J0D01*
G01*
X186775000Y-120125000D01*
G75*
G02*
X187025000Y-120375000I0J-250000D01*
G01*
X187025000Y-121625000D01*
G75*
G02*
X186775000Y-121875000I-250000J0D01*
G01*
X186025000Y-121875000D01*
G75*
G02*
X185775000Y-121625000I0J250000D01*
G01*
G37*
G36*
G01*
X182975000Y-121625000D02*
X182975000Y-120375000D01*
G75*
G02*
X183225000Y-120125000I250000J0D01*
G01*
X183975000Y-120125000D01*
G75*
G02*
X184225000Y-120375000I0J-250000D01*
G01*
X184225000Y-121625000D01*
G75*
G02*
X183975000Y-121875000I-250000J0D01*
G01*
X183225000Y-121875000D01*
G75*
G02*
X182975000Y-121625000I0J250000D01*
G01*
G37*
D11*
X157540000Y-115350000D03*
X157540000Y-111450000D03*
X156270000Y-115350000D03*
X156270000Y-111450000D03*
X155000000Y-115350000D03*
X155000000Y-111450000D03*
X153730000Y-115350000D03*
X153730000Y-111450000D03*
X152460000Y-115350000D03*
X152460000Y-111450000D03*
G36*
G01*
X174775000Y-121425000D02*
X174775000Y-120175000D01*
G75*
G02*
X175025000Y-119925000I250000J0D01*
G01*
X175775000Y-119925000D01*
G75*
G02*
X176025000Y-120175000I0J-250000D01*
G01*
X176025000Y-121425000D01*
G75*
G02*
X175775000Y-121675000I-250000J0D01*
G01*
X175025000Y-121675000D01*
G75*
G02*
X174775000Y-121425000I0J250000D01*
G01*
G37*
G36*
G01*
X171975000Y-121425000D02*
X171975000Y-120175000D01*
G75*
G02*
X172225000Y-119925000I250000J0D01*
G01*
X172975000Y-119925000D01*
G75*
G02*
X173225000Y-120175000I0J-250000D01*
G01*
X173225000Y-121425000D01*
G75*
G02*
X172975000Y-121675000I-250000J0D01*
G01*
X172225000Y-121675000D01*
G75*
G02*
X171975000Y-121425000I0J250000D01*
G01*
G37*
D12*
X187255000Y-127600000D03*
X183945000Y-125060000D03*
X183945000Y-130140000D03*
G36*
G01*
X178375000Y-131375000D02*
X179625000Y-131375000D01*
G75*
G02*
X179875000Y-131625000I0J-250000D01*
G01*
X179875000Y-132375000D01*
G75*
G02*
X179625000Y-132625000I-250000J0D01*
G01*
X178375000Y-132625000D01*
G75*
G02*
X178125000Y-132375000I0J250000D01*
G01*
X178125000Y-131625000D01*
G75*
G02*
X178375000Y-131375000I250000J0D01*
G01*
G37*
G36*
G01*
X178375000Y-128575000D02*
X179625000Y-128575000D01*
G75*
G02*
X179875000Y-128825000I0J-250000D01*
G01*
X179875000Y-129575000D01*
G75*
G02*
X179625000Y-129825000I-250000J0D01*
G01*
X178375000Y-129825000D01*
G75*
G02*
X178125000Y-129575000I0J250000D01*
G01*
X178125000Y-128825000D01*
G75*
G02*
X178375000Y-128575000I250000J0D01*
G01*
G37*
D13*
X166500000Y-137255000D03*
X166500000Y-135985000D03*
X166500000Y-134715000D03*
X166500000Y-133445000D03*
X166500000Y-132175000D03*
X166500000Y-130905000D03*
X166500000Y-129635000D03*
X166500000Y-128365000D03*
X166500000Y-127095000D03*
X166500000Y-125825000D03*
X166500000Y-124555000D03*
X166500000Y-123285000D03*
X166500000Y-122015000D03*
X166500000Y-120745000D03*
D14*
X163715000Y-119745000D03*
X162445000Y-119745000D03*
X161175000Y-119745000D03*
X159905000Y-119745000D03*
X158635000Y-119745000D03*
X157365000Y-119745000D03*
X156095000Y-119745000D03*
X154825000Y-119745000D03*
X153555000Y-119745000D03*
X152285000Y-119745000D03*
D13*
X149500000Y-120745000D03*
X149500000Y-122015000D03*
X149500000Y-123285000D03*
X149500000Y-124555000D03*
X149500000Y-125825000D03*
X149500000Y-127095000D03*
X149500000Y-128365000D03*
X149500000Y-129635000D03*
X149500000Y-130905000D03*
X149500000Y-132175000D03*
X149500000Y-133445000D03*
X149500000Y-134715000D03*
X149500000Y-135985000D03*
X149500000Y-137255000D03*
D15*
X157000000Y-129755000D03*
G36*
G01*
X135225000Y-126375000D02*
X135225000Y-127625000D01*
G75*
G02*
X134975000Y-127875000I-250000J0D01*
G01*
X134225000Y-127875000D01*
G75*
G02*
X133975000Y-127625000I0J250000D01*
G01*
X133975000Y-126375000D01*
G75*
G02*
X134225000Y-126125000I250000J0D01*
G01*
X134975000Y-126125000D01*
G75*
G02*
X135225000Y-126375000I0J-250000D01*
G01*
G37*
G36*
G01*
X138025000Y-126375000D02*
X138025000Y-127625000D01*
G75*
G02*
X137775000Y-127875000I-250000J0D01*
G01*
X137025000Y-127875000D01*
G75*
G02*
X136775000Y-127625000I0J250000D01*
G01*
X136775000Y-126375000D01*
G75*
G02*
X137025000Y-126125000I250000J0D01*
G01*
X137775000Y-126125000D01*
G75*
G02*
X138025000Y-126375000I0J-250000D01*
G01*
G37*
G36*
G01*
X173025000Y-124675000D02*
X171775000Y-124675000D01*
G75*
G02*
X171525000Y-124425000I0J250000D01*
G01*
X171525000Y-123675000D01*
G75*
G02*
X171775000Y-123425000I250000J0D01*
G01*
X173025000Y-123425000D01*
G75*
G02*
X173275000Y-123675000I0J-250000D01*
G01*
X173275000Y-124425000D01*
G75*
G02*
X173025000Y-124675000I-250000J0D01*
G01*
G37*
G36*
G01*
X173025000Y-127475000D02*
X171775000Y-127475000D01*
G75*
G02*
X171525000Y-127225000I0J250000D01*
G01*
X171525000Y-126475000D01*
G75*
G02*
X171775000Y-126225000I250000J0D01*
G01*
X173025000Y-126225000D01*
G75*
G02*
X173275000Y-126475000I0J-250000D01*
G01*
X173275000Y-127225000D01*
G75*
G02*
X173025000Y-127475000I-250000J0D01*
G01*
G37*
G36*
G01*
X170475000Y-124675000D02*
X169225000Y-124675000D01*
G75*
G02*
X168975000Y-124425000I0J250000D01*
G01*
X168975000Y-123675000D01*
G75*
G02*
X169225000Y-123425000I250000J0D01*
G01*
X170475000Y-123425000D01*
G75*
G02*
X170725000Y-123675000I0J-250000D01*
G01*
X170725000Y-124425000D01*
G75*
G02*
X170475000Y-124675000I-250000J0D01*
G01*
G37*
G36*
G01*
X170475000Y-127475000D02*
X169225000Y-127475000D01*
G75*
G02*
X168975000Y-127225000I0J250000D01*
G01*
X168975000Y-126475000D01*
G75*
G02*
X169225000Y-126225000I250000J0D01*
G01*
X170475000Y-126225000D01*
G75*
G02*
X170725000Y-126475000I0J-250000D01*
G01*
X170725000Y-127225000D01*
G75*
G02*
X170475000Y-127475000I-250000J0D01*
G01*
G37*
G36*
G01*
X124875000Y-123775000D02*
X126125000Y-123775000D01*
G75*
G02*
X126375000Y-124025000I0J-250000D01*
G01*
X126375000Y-124775000D01*
G75*
G02*
X126125000Y-125025000I-250000J0D01*
G01*
X124875000Y-125025000D01*
G75*
G02*
X124625000Y-124775000I0J250000D01*
G01*
X124625000Y-124025000D01*
G75*
G02*
X124875000Y-123775000I250000J0D01*
G01*
G37*
G36*
G01*
X124875000Y-120975000D02*
X126125000Y-120975000D01*
G75*
G02*
X126375000Y-121225000I0J-250000D01*
G01*
X126375000Y-121975000D01*
G75*
G02*
X126125000Y-122225000I-250000J0D01*
G01*
X124875000Y-122225000D01*
G75*
G02*
X124625000Y-121975000I0J250000D01*
G01*
X124625000Y-121225000D01*
G75*
G02*
X124875000Y-120975000I250000J0D01*
G01*
G37*
G36*
G01*
X142225000Y-132875000D02*
X142225000Y-134125000D01*
G75*
G02*
X141975000Y-134375000I-250000J0D01*
G01*
X141225000Y-134375000D01*
G75*
G02*
X140975000Y-134125000I0J250000D01*
G01*
X140975000Y-132875000D01*
G75*
G02*
X141225000Y-132625000I250000J0D01*
G01*
X141975000Y-132625000D01*
G75*
G02*
X142225000Y-132875000I0J-250000D01*
G01*
G37*
G36*
G01*
X145025000Y-132875000D02*
X145025000Y-134125000D01*
G75*
G02*
X144775000Y-134375000I-250000J0D01*
G01*
X144025000Y-134375000D01*
G75*
G02*
X143775000Y-134125000I0J250000D01*
G01*
X143775000Y-132875000D01*
G75*
G02*
X144025000Y-132625000I250000J0D01*
G01*
X144775000Y-132625000D01*
G75*
G02*
X145025000Y-132875000I0J-250000D01*
G01*
G37*
G36*
G01*
X124875000Y-118775000D02*
X126125000Y-118775000D01*
G75*
G02*
X126375000Y-119025000I0J-250000D01*
G01*
X126375000Y-119775000D01*
G75*
G02*
X126125000Y-120025000I-250000J0D01*
G01*
X124875000Y-120025000D01*
G75*
G02*
X124625000Y-119775000I0J250000D01*
G01*
X124625000Y-119025000D01*
G75*
G02*
X124875000Y-118775000I250000J0D01*
G01*
G37*
G36*
G01*
X124875000Y-115975000D02*
X126125000Y-115975000D01*
G75*
G02*
X126375000Y-116225000I0J-250000D01*
G01*
X126375000Y-116975000D01*
G75*
G02*
X126125000Y-117225000I-250000J0D01*
G01*
X124875000Y-117225000D01*
G75*
G02*
X124625000Y-116975000I0J250000D01*
G01*
X124625000Y-116225000D01*
G75*
G02*
X124875000Y-115975000I250000J0D01*
G01*
G37*
G36*
G01*
X146125000Y-133275000D02*
X147375000Y-133275000D01*
G75*
G02*
X147625000Y-133525000I0J-250000D01*
G01*
X147625000Y-134275000D01*
G75*
G02*
X147375000Y-134525000I-250000J0D01*
G01*
X146125000Y-134525000D01*
G75*
G02*
X145875000Y-134275000I0J250000D01*
G01*
X145875000Y-133525000D01*
G75*
G02*
X146125000Y-133275000I250000J0D01*
G01*
G37*
G36*
G01*
X146125000Y-130475000D02*
X147375000Y-130475000D01*
G75*
G02*
X147625000Y-130725000I0J-250000D01*
G01*
X147625000Y-131475000D01*
G75*
G02*
X147375000Y-131725000I-250000J0D01*
G01*
X146125000Y-131725000D01*
G75*
G02*
X145875000Y-131475000I0J250000D01*
G01*
X145875000Y-130725000D01*
G75*
G02*
X146125000Y-130475000I250000J0D01*
G01*
G37*
G36*
G01*
X144875000Y-136475000D02*
X143625000Y-136475000D01*
G75*
G02*
X143375000Y-136225000I0J250000D01*
G01*
X143375000Y-135475000D01*
G75*
G02*
X143625000Y-135225000I250000J0D01*
G01*
X144875000Y-135225000D01*
G75*
G02*
X145125000Y-135475000I0J-250000D01*
G01*
X145125000Y-136225000D01*
G75*
G02*
X144875000Y-136475000I-250000J0D01*
G01*
G37*
G36*
G01*
X144875000Y-139275000D02*
X143625000Y-139275000D01*
G75*
G02*
X143375000Y-139025000I0J250000D01*
G01*
X143375000Y-138275000D01*
G75*
G02*
X143625000Y-138025000I250000J0D01*
G01*
X144875000Y-138025000D01*
G75*
G02*
X145125000Y-138275000I0J-250000D01*
G01*
X145125000Y-139025000D01*
G75*
G02*
X144875000Y-139275000I-250000J0D01*
G01*
G37*
G36*
G01*
X147375000Y-136475000D02*
X146125000Y-136475000D01*
G75*
G02*
X145875000Y-136225000I0J250000D01*
G01*
X145875000Y-135475000D01*
G75*
G02*
X146125000Y-135225000I250000J0D01*
G01*
X147375000Y-135225000D01*
G75*
G02*
X147625000Y-135475000I0J-250000D01*
G01*
X147625000Y-136225000D01*
G75*
G02*
X147375000Y-136475000I-250000J0D01*
G01*
G37*
G36*
G01*
X147375000Y-139275000D02*
X146125000Y-139275000D01*
G75*
G02*
X145875000Y-139025000I0J250000D01*
G01*
X145875000Y-138275000D01*
G75*
G02*
X146125000Y-138025000I250000J0D01*
G01*
X147375000Y-138025000D01*
G75*
G02*
X147625000Y-138275000I0J-250000D01*
G01*
X147625000Y-139025000D01*
G75*
G02*
X147375000Y-139275000I-250000J0D01*
G01*
G37*
G36*
G01*
X135225000Y-133875000D02*
X135225000Y-135125000D01*
G75*
G02*
X134975000Y-135375000I-250000J0D01*
G01*
X134225000Y-135375000D01*
G75*
G02*
X133975000Y-135125000I0J250000D01*
G01*
X133975000Y-133875000D01*
G75*
G02*
X134225000Y-133625000I250000J0D01*
G01*
X134975000Y-133625000D01*
G75*
G02*
X135225000Y-133875000I0J-250000D01*
G01*
G37*
G36*
G01*
X138025000Y-133875000D02*
X138025000Y-135125000D01*
G75*
G02*
X137775000Y-135375000I-250000J0D01*
G01*
X137025000Y-135375000D01*
G75*
G02*
X136775000Y-135125000I0J250000D01*
G01*
X136775000Y-133875000D01*
G75*
G02*
X137025000Y-133625000I250000J0D01*
G01*
X137775000Y-133625000D01*
G75*
G02*
X138025000Y-133875000I0J-250000D01*
G01*
G37*
G36*
G01*
X135225000Y-131375000D02*
X135225000Y-132625000D01*
G75*
G02*
X134975000Y-132875000I-250000J0D01*
G01*
X134225000Y-132875000D01*
G75*
G02*
X133975000Y-132625000I0J250000D01*
G01*
X133975000Y-131375000D01*
G75*
G02*
X134225000Y-131125000I250000J0D01*
G01*
X134975000Y-131125000D01*
G75*
G02*
X135225000Y-131375000I0J-250000D01*
G01*
G37*
G36*
G01*
X138025000Y-131375000D02*
X138025000Y-132625000D01*
G75*
G02*
X137775000Y-132875000I-250000J0D01*
G01*
X137025000Y-132875000D01*
G75*
G02*
X136775000Y-132625000I0J250000D01*
G01*
X136775000Y-131375000D01*
G75*
G02*
X137025000Y-131125000I250000J0D01*
G01*
X137775000Y-131125000D01*
G75*
G02*
X138025000Y-131375000I0J-250000D01*
G01*
G37*
G36*
G01*
X135225000Y-128875000D02*
X135225000Y-130125000D01*
G75*
G02*
X134975000Y-130375000I-250000J0D01*
G01*
X134225000Y-130375000D01*
G75*
G02*
X133975000Y-130125000I0J250000D01*
G01*
X133975000Y-128875000D01*
G75*
G02*
X134225000Y-128625000I250000J0D01*
G01*
X134975000Y-128625000D01*
G75*
G02*
X135225000Y-128875000I0J-250000D01*
G01*
G37*
G36*
G01*
X138025000Y-128875000D02*
X138025000Y-130125000D01*
G75*
G02*
X137775000Y-130375000I-250000J0D01*
G01*
X137025000Y-130375000D01*
G75*
G02*
X136775000Y-130125000I0J250000D01*
G01*
X136775000Y-128875000D01*
G75*
G02*
X137025000Y-128625000I250000J0D01*
G01*
X137775000Y-128625000D01*
G75*
G02*
X138025000Y-128875000I0J-250000D01*
G01*
G37*
G36*
G01*
X130725000Y-117625000D02*
X130725000Y-118875000D01*
G75*
G02*
X130475000Y-119125000I-250000J0D01*
G01*
X129725000Y-119125000D01*
G75*
G02*
X129475000Y-118875000I0J250000D01*
G01*
X129475000Y-117625000D01*
G75*
G02*
X129725000Y-117375000I250000J0D01*
G01*
X130475000Y-117375000D01*
G75*
G02*
X130725000Y-117625000I0J-250000D01*
G01*
G37*
G36*
G01*
X133525000Y-117625000D02*
X133525000Y-118875000D01*
G75*
G02*
X133275000Y-119125000I-250000J0D01*
G01*
X132525000Y-119125000D01*
G75*
G02*
X132275000Y-118875000I0J250000D01*
G01*
X132275000Y-117625000D01*
G75*
G02*
X132525000Y-117375000I250000J0D01*
G01*
X133275000Y-117375000D01*
G75*
G02*
X133525000Y-117625000I0J-250000D01*
G01*
G37*
G36*
G01*
X128625000Y-117225000D02*
X127375000Y-117225000D01*
G75*
G02*
X127125000Y-116975000I0J250000D01*
G01*
X127125000Y-116225000D01*
G75*
G02*
X127375000Y-115975000I250000J0D01*
G01*
X128625000Y-115975000D01*
G75*
G02*
X128875000Y-116225000I0J-250000D01*
G01*
X128875000Y-116975000D01*
G75*
G02*
X128625000Y-117225000I-250000J0D01*
G01*
G37*
G36*
G01*
X128625000Y-120025000D02*
X127375000Y-120025000D01*
G75*
G02*
X127125000Y-119775000I0J250000D01*
G01*
X127125000Y-119025000D01*
G75*
G02*
X127375000Y-118775000I250000J0D01*
G01*
X128625000Y-118775000D01*
G75*
G02*
X128875000Y-119025000I0J-250000D01*
G01*
X128875000Y-119775000D01*
G75*
G02*
X128625000Y-120025000I-250000J0D01*
G01*
G37*
G36*
G01*
X129925000Y-131775000D02*
X131175000Y-131775000D01*
G75*
G02*
X131425000Y-132025000I0J-250000D01*
G01*
X131425000Y-132775000D01*
G75*
G02*
X131175000Y-133025000I-250000J0D01*
G01*
X129925000Y-133025000D01*
G75*
G02*
X129675000Y-132775000I0J250000D01*
G01*
X129675000Y-132025000D01*
G75*
G02*
X129925000Y-131775000I250000J0D01*
G01*
G37*
G36*
G01*
X129925000Y-128975000D02*
X131175000Y-128975000D01*
G75*
G02*
X131425000Y-129225000I0J-250000D01*
G01*
X131425000Y-129975000D01*
G75*
G02*
X131175000Y-130225000I-250000J0D01*
G01*
X129925000Y-130225000D01*
G75*
G02*
X129675000Y-129975000I0J250000D01*
G01*
X129675000Y-129225000D01*
G75*
G02*
X129925000Y-128975000I250000J0D01*
G01*
G37*
G36*
G01*
X127375000Y-131775000D02*
X128625000Y-131775000D01*
G75*
G02*
X128875000Y-132025000I0J-250000D01*
G01*
X128875000Y-132775000D01*
G75*
G02*
X128625000Y-133025000I-250000J0D01*
G01*
X127375000Y-133025000D01*
G75*
G02*
X127125000Y-132775000I0J250000D01*
G01*
X127125000Y-132025000D01*
G75*
G02*
X127375000Y-131775000I250000J0D01*
G01*
G37*
G36*
G01*
X127375000Y-128975000D02*
X128625000Y-128975000D01*
G75*
G02*
X128875000Y-129225000I0J-250000D01*
G01*
X128875000Y-129975000D01*
G75*
G02*
X128625000Y-130225000I-250000J0D01*
G01*
X127375000Y-130225000D01*
G75*
G02*
X127125000Y-129975000I0J250000D01*
G01*
X127125000Y-129225000D01*
G75*
G02*
X127375000Y-128975000I250000J0D01*
G01*
G37*
D16*
X135530000Y-124220000D03*
X135530000Y-120620000D03*
G36*
G01*
X172275000Y-130500000D02*
X172925000Y-130500000D01*
G75*
G02*
X173075000Y-130650000I0J-150000D01*
G01*
X173075000Y-130950000D01*
G75*
G02*
X172925000Y-131100000I-150000J0D01*
G01*
X172275000Y-131100000D01*
G75*
G02*
X172125000Y-130950000I0J150000D01*
G01*
X172125000Y-130650000D01*
G75*
G02*
X172275000Y-130500000I150000J0D01*
G01*
G37*
G36*
G01*
X172450000Y-131325000D02*
X172750000Y-131325000D01*
G75*
G02*
X172900000Y-131475000I0J-150000D01*
G01*
X172900000Y-132125000D01*
G75*
G02*
X172750000Y-132275000I-150000J0D01*
G01*
X172450000Y-132275000D01*
G75*
G02*
X172300000Y-132125000I0J150000D01*
G01*
X172300000Y-131475000D01*
G75*
G02*
X172450000Y-131325000I150000J0D01*
G01*
G37*
G36*
G01*
X173250000Y-131325000D02*
X173550000Y-131325000D01*
G75*
G02*
X173700000Y-131475000I0J-150000D01*
G01*
X173700000Y-132125000D01*
G75*
G02*
X173550000Y-132275000I-150000J0D01*
G01*
X173250000Y-132275000D01*
G75*
G02*
X173100000Y-132125000I0J150000D01*
G01*
X173100000Y-131475000D01*
G75*
G02*
X173250000Y-131325000I150000J0D01*
G01*
G37*
G36*
G01*
X174050000Y-131325000D02*
X174350000Y-131325000D01*
G75*
G02*
X174500000Y-131475000I0J-150000D01*
G01*
X174500000Y-132125000D01*
G75*
G02*
X174350000Y-132275000I-150000J0D01*
G01*
X174050000Y-132275000D01*
G75*
G02*
X173900000Y-132125000I0J150000D01*
G01*
X173900000Y-131475000D01*
G75*
G02*
X174050000Y-131325000I150000J0D01*
G01*
G37*
G36*
G01*
X174850000Y-131325000D02*
X175150000Y-131325000D01*
G75*
G02*
X175300000Y-131475000I0J-150000D01*
G01*
X175300000Y-132125000D01*
G75*
G02*
X175150000Y-132275000I-150000J0D01*
G01*
X174850000Y-132275000D01*
G75*
G02*
X174700000Y-132125000I0J150000D01*
G01*
X174700000Y-131475000D01*
G75*
G02*
X174850000Y-131325000I150000J0D01*
G01*
G37*
G36*
G01*
X175650000Y-131325000D02*
X175950000Y-131325000D01*
G75*
G02*
X176100000Y-131475000I0J-150000D01*
G01*
X176100000Y-132125000D01*
G75*
G02*
X175950000Y-132275000I-150000J0D01*
G01*
X175650000Y-132275000D01*
G75*
G02*
X175500000Y-132125000I0J150000D01*
G01*
X175500000Y-131475000D01*
G75*
G02*
X175650000Y-131325000I150000J0D01*
G01*
G37*
G36*
G01*
X176450000Y-131325000D02*
X176750000Y-131325000D01*
G75*
G02*
X176900000Y-131475000I0J-150000D01*
G01*
X176900000Y-132125000D01*
G75*
G02*
X176750000Y-132275000I-150000J0D01*
G01*
X176450000Y-132275000D01*
G75*
G02*
X176300000Y-132125000I0J150000D01*
G01*
X176300000Y-131475000D01*
G75*
G02*
X176450000Y-131325000I150000J0D01*
G01*
G37*
G36*
G01*
X176275000Y-130500000D02*
X176925000Y-130500000D01*
G75*
G02*
X177075000Y-130650000I0J-150000D01*
G01*
X177075000Y-130950000D01*
G75*
G02*
X176925000Y-131100000I-150000J0D01*
G01*
X176275000Y-131100000D01*
G75*
G02*
X176125000Y-130950000I0J150000D01*
G01*
X176125000Y-130650000D01*
G75*
G02*
X176275000Y-130500000I150000J0D01*
G01*
G37*
G36*
G01*
X176450000Y-129325000D02*
X176750000Y-129325000D01*
G75*
G02*
X176900000Y-129475000I0J-150000D01*
G01*
X176900000Y-130125000D01*
G75*
G02*
X176750000Y-130275000I-150000J0D01*
G01*
X176450000Y-130275000D01*
G75*
G02*
X176300000Y-130125000I0J150000D01*
G01*
X176300000Y-129475000D01*
G75*
G02*
X176450000Y-129325000I150000J0D01*
G01*
G37*
G36*
G01*
X175650000Y-129325000D02*
X175950000Y-129325000D01*
G75*
G02*
X176100000Y-129475000I0J-150000D01*
G01*
X176100000Y-130125000D01*
G75*
G02*
X175950000Y-130275000I-150000J0D01*
G01*
X175650000Y-130275000D01*
G75*
G02*
X175500000Y-130125000I0J150000D01*
G01*
X175500000Y-129475000D01*
G75*
G02*
X175650000Y-129325000I150000J0D01*
G01*
G37*
G36*
G01*
X174850000Y-129325000D02*
X175150000Y-129325000D01*
G75*
G02*
X175300000Y-129475000I0J-150000D01*
G01*
X175300000Y-130125000D01*
G75*
G02*
X175150000Y-130275000I-150000J0D01*
G01*
X174850000Y-130275000D01*
G75*
G02*
X174700000Y-130125000I0J150000D01*
G01*
X174700000Y-129475000D01*
G75*
G02*
X174850000Y-129325000I150000J0D01*
G01*
G37*
G36*
G01*
X174050000Y-129325000D02*
X174350000Y-129325000D01*
G75*
G02*
X174500000Y-129475000I0J-150000D01*
G01*
X174500000Y-130125000D01*
G75*
G02*
X174350000Y-130275000I-150000J0D01*
G01*
X174050000Y-130275000D01*
G75*
G02*
X173900000Y-130125000I0J150000D01*
G01*
X173900000Y-129475000D01*
G75*
G02*
X174050000Y-129325000I150000J0D01*
G01*
G37*
G36*
G01*
X173250000Y-129325000D02*
X173550000Y-129325000D01*
G75*
G02*
X173700000Y-129475000I0J-150000D01*
G01*
X173700000Y-130125000D01*
G75*
G02*
X173550000Y-130275000I-150000J0D01*
G01*
X173250000Y-130275000D01*
G75*
G02*
X173100000Y-130125000I0J150000D01*
G01*
X173100000Y-129475000D01*
G75*
G02*
X173250000Y-129325000I150000J0D01*
G01*
G37*
G36*
G01*
X172450000Y-129325000D02*
X172750000Y-129325000D01*
G75*
G02*
X172900000Y-129475000I0J-150000D01*
G01*
X172900000Y-130125000D01*
G75*
G02*
X172750000Y-130275000I-150000J0D01*
G01*
X172450000Y-130275000D01*
G75*
G02*
X172300000Y-130125000I0J150000D01*
G01*
X172300000Y-129475000D01*
G75*
G02*
X172450000Y-129325000I150000J0D01*
G01*
G37*
D17*
X129630000Y-124720000D03*
D18*
X131535000Y-122020000D03*
X130265000Y-122020000D03*
X128995000Y-122020000D03*
X127725000Y-122020000D03*
X127725000Y-127420000D03*
X128995000Y-127420000D03*
X130265000Y-127420000D03*
X131535000Y-127420000D03*
D19*
X121450000Y-134050000D03*
X121450000Y-127050000D03*
D20*
X121450000Y-130550000D03*
D21*
X124125000Y-129900000D03*
X124125000Y-129250000D03*
X124125000Y-130550000D03*
X124125000Y-131200000D03*
X124125000Y-131850000D03*
M02*
